<?xml version="1.0" encoding="utf-8"?>
<!-- Generator: Adobe Illustrator 25.0.0, SVG Export Plug-In . SVG Version: 6.00 Build 0)  -->
<svg version="1.1" xmlns="http://www.w3.org/2000/svg" xmlns:xlink="http://www.w3.org/1999/xlink" x="0px" y="0px"
	 viewBox="0 0 425.2 425.2" style="enable-background:new 0 0 425.2 425.2;" xml:space="preserve">
<style type="text/css">
	.st0{fill:none;}
	.st1{fill:#FFFFFF;}
	.st2{stroke:#FFFFFF;stroke-width:1.6674;stroke-miterlimit:10;}
	.st3{fill:#FFFFFF;stroke:#000000;stroke-width:2.5011;stroke-miterlimit:10;}
	.st4{fill:#00A0E9;}
	.st5{fill:#FFFFFF;stroke:#000000;stroke-width:3;stroke-miterlimit:10;}
</style>
<g id="圖層_1">
	<path d="M-1000.5,138.8"/>
</g>
<g id="圖層_2">
	<g>
		<g>
			<path class="st0" d="M161.1,197.3c0.3,0.7,0.3,1.1,0.6,1.4c2.3,3.1,4.4,6.2,6.9,9.1c0.7,0.9,2.3,1.5,3.7-0.4
				c-1.9-2.5-4-4.9-5.7-7.6C165.2,197.8,163.3,197.9,161.1,197.3z"/>
			<path class="st0" d="M167,198c0.3,0.4,0.6,0.8,0.9,1.2c1.6,2,3.3,4,4.8,6.1c1.5,1.9,2.1,1.9,3.7-0.2c-0.6-0.8-1.3-1.7-1.9-2.5
				c-0.6-0.9-1.3-1.7-1.8-2.7C171,197.2,170.3,197,167,198z"/>
			<path class="st0" d="M148.4,193.2c3.9,6.1,7.5,11.9,11.2,17.6c0.8,1.2,2.3,2.1,3.5,3.2c0.3-0.4,0.4-0.6,0.4-0.7
				c0-0.2-0.1-0.5-0.2-0.7c-2.1-3.3-4.2-6.7-6.4-9.9c-1.4-2.1-3.2-4.1-4.2-6.3C151.7,194.4,150.3,194,148.4,193.2z"/>
			<path class="st0" d="M172.8,197.4c1.6,2,3,3.9,4.6,5.7c0.3,0.4,1.2,0.2,1.8,0.3c-0.1-0.6,0-1.3-0.2-1.8c-0.6-1.1-1.5-2.1-2-3.2
				C176,196.7,174.9,196.3,172.8,197.4z"/>
			<path class="st0" d="M131.2,183.2c-0.5-0.5-1.7-0.7-2.4-0.5c-0.6,0.3-1.2,1.3-1.3,2.1c-0.1,1.3-0.2,2.8,0.3,4
				c0.9,2,2.2,3.8,3.4,5.6c2.1,3.2,4.3,6.4,6.4,9.5c3.3,4.8,6.6,9.5,9.9,14.3c0.7,1,1.4,2.1,2.3,3c0.9,0.9,1.9,0.9,3,0
				c1.1-0.9,0.4-1.7-0.1-2.5c-1-1.5-2.5-2.3-3.6-3.7c-1.4-1.9-1.7-3.3-3.1-5.2c-1.1-1.5-3-4.3-4.1-5.9c-3.9-5.5-7.9-10.9-11.9-16.4
				c-0.4-0.5-0.6-1.1-0.9-1.7c0.2-0.1,0.5-0.3,0.7-0.4c8.4,11.2,16.7,22.3,25.2,33.6c0.8-0.7,1.5-1.3,1.9-1.7
				c-2.2-3.4-4.2-6.5-6.3-9.6c-0.8-1.2-1.7-2.2-2.5-3.4c-1.1-1.5-2.5-3-3.3-4.7C142,192.8,136.5,188.1,131.2,183.2z"/>
			<path class="st0" d="M141.1,190.6c1.8,2.8,3.5,5.5,5.2,8.1c1,1.5,2.1,2.9,3.1,4.3c1.4,2,2.7,4,4.2,5.9c1.7,2.2,3.4,4.2,5.2,6.3
				c0.3,0.3,1.1,0.2,1.8,0.4c-2.2-3.5-4.2-6.4-6.1-9.4c-2.7-4.3-5.6-8.6-8.2-12.9C145.1,191.1,143.1,191,141.1,190.6z"/>
			<path class="st0" d="M297.7,226.5c-7,0-14.1-0.3-21.1-0.2c-4.5,0-9,0.6-13.5,0.6c-5.9,0-11.8-0.4-17.7-0.3
				c-7,0.1-13.9,0.6-20.9,0.6c-18.5,0.1-37,0.1-55.4,0.1c-2,0-4.1,0.2-6.3,0.3c0.2,1,0.4,1.9,0.6,3.2c4,0,8,0.1,12,0
				c12.6-0.2,25.1-0.4,37.7-0.6c8.6-0.1,17.2,0,25.8-0.2c7.3-0.2,14.8,0,22.1-0.4c1.3,0.1,2.6-0.1,2.9,1.2c0.3,1.4,0,3-0.2,4.5
				c0,0.3-1,0.6-1.5,0.6c-4.1-0.1-8.1-0.6-12.2-0.5c-13.1,0-26.1,0.2-39.2,0.4c-7.8,0.1-15.6,0.2-23.4,0.3
				c-8.8,0.1-17.7,0.3-26.5,0.3c-1.6,0-1.9,0.7-1.9,2.2c0,3.2,0.1,6.5-0.5,9.6c-0.4,2.1,0.2,2.1,1.7,2.1c6.8,0,13.6,0,20.4,0
				c14.8,0,29.7,0,44.5,0c6.5,0,13.1-0.2,19.6-0.4c4.1-0.1,8.3-0.3,12.4-0.4c1.6-0.1,2.8-0.7,3.8-2.2c0.9-1.3,1.9-2.6,3-3.7
				c3-3.1,5-6.6,4.8-11.1c0-1.1,0.4-1.6,1.6-1.6c2.5,0.1,5,0.1,7.5,0c8.7-0.1,17.3-0.2,26-0.3c12.8-0.1,25.6-0.3,38.4-0.4
				c1.3,0,2.6,0.2,3.8,0c0.7-0.1,1.3-1,2-1.5c-0.6-0.5-1.2-1.3-1.9-1.4c-9.1-0.4-18.2-0.8-27.3-1
				C311.8,226.2,304.8,226.5,297.7,226.5z"/>
			<path class="st0" d="M77.6,338.4c-1.7,0-2.6,0.9-2.7,2.7c0,1.5,1.2,2.9,2.6,2.9c1.5,0,2.6-1.1,2.6-2.8
				C80.1,339.4,79.3,338.4,77.6,338.4z"/>
			<path class="st0" d="M82.4,284.7c-0.1-11.2-0.2-22.5-0.3-33.7c0-4.2-0.1-8.5-0.1-12.7c0-0.7-0.3-1.4-0.4-2.1
				c-0.3,0-0.6-0.1-0.8-0.1c-0.2,0.8-0.5,1.6-0.5,2.4c-0.1,2.8-0.1,5.5-0.1,8.3c-0.1,11.7-0.3,23.4-0.3,35.1
				c0,11.9,0.2,23.7,0.4,35.6c0,2.6,0.1,5.1,0.4,7.7c0.1,0.7,0.8,1.3,1.3,2c0.3-0.7,0.9-1.3,0.9-2c0-2.2-0.3-4.5-0.3-6.7
				C82.4,307.1,82.4,295.9,82.4,284.7z"/>
			<path class="st0" d="M182.7,197c-1.5,0.1-2.9,0.2-4.7,0.4c1,1.4,1.7,2.6,2.6,3.7c0.2,0.3,1,0.5,1.1,0.4c0.7-1.1,1.4-2.2,1.9-3.4
				c0.1-0.2-0.3-0.7-0.5-1.1C183,197,182.8,197,182.7,197z"/>
			<path class="st0" d="M169.4,214.7c-1.1,1-2.5,2.5-2.5,3.8c0,1.9-0.6,2-2,1.9c-2.8-0.1-5.5,1.5-6.3,4c0.5,0.1,0.9,0.4,1.4,0.4
				c2.5,0.1,5,0.2,7.5,0.2c13.1-0.1,26.3-0.4,39.4-0.4c2.9,0,5.1-1.2,8-3c-1.7-0.7-3-1.6-4.2-1.7c-2.2-0.3-3.7-1.5-4.4-3.5
				c-0.7-1.8-1.8-2.6-3.5-3.2c-3.7-1.3-6.3-3.6-7.6-7.4c-0.4-1.1-0.9-2.1-1.2-3.2c-0.4-1.4-1.2-1.3-2.1-0.6c-0.4,0.3-0.7,0.7-1,1.1
				c-4.7,6.1-10.8,9.6-18.4,10.4C171.3,213.7,170.1,214,169.4,214.7z"/>
			<path class="st0" d="M350.2,323.4c0.8-0.6,1.8-1,2.2-1.7c0.5-0.9,0.8-2.1,0.8-3.2c0.1-7.6,0-15.3,0-22.9c0,0,0,0,0,0
				c0-7.8,0-15.5,0-23.3c0-0.6,0.1-1.2-0.2-1.7c-0.3-0.6-0.9-1.5-1.4-1.5c-0.6,0-1.5,0.5-2,1.1c-0.4,0.5-0.4,1.5-0.5,2.2
				c-0.1,2.9-0.2,5.8-0.2,8.7c-0.2,9.9-0.5,19.9-0.7,29.8c-0.1,3.4,0.2,6.8,0.5,10.2C348.8,321.8,349.7,322.6,350.2,323.4z"/>
			<path class="st0" d="M145.3,253.4c1.5-0.9,3.2-1.7,4.4-3c2.6-2.7,3.1-6.3,2.9-10c0-3.1-0.4-6.2-3.8-7.6c-2-0.8-5.2-0.3-6.5,1.1
				c-1.1,1.2-0.8,3.5,0.1,5.8c1.6,4,3.4,8,1.9,12.5C144.2,252.5,145.2,253.4,145.3,253.4z"/>
			<path class="st0" d="M154,195.9c3.8,5.4,7.7,10.8,11.7,16.4c0.9-0.7,1.7-1.4,2.6-2.1c-2.8-3.9-5.6-7.5-8-11.4
				C158.7,196.2,156.3,196.3,154,195.9z"/>
			<path class="st0" d="M112.9,260.1c-0.1-2-0.1-3.5-0.4-4.9c-0.5-3.4-0.9-6.8-1.6-10.1c-0.6-2.7-2.2-5.1-4.7-6.4
				c-0.6-0.3-1.6-0.6-2.1-0.3c-3.6,1.7-5.2,4.8-2.4,8.4C105.1,251.1,108.8,255.3,112.9,260.1z"/>
			<path class="st0" d="M317,208.4c-1.9-0.5-2.8,0.9-4.1,1.8c-1.1,0.8-2.4,1.7-3.6,1.6c-3.8-0.2-6.1-2.7-6.4-6.6c0-0.1,0-0.3,0-0.4
				c-0.4-4.1-3.4-6.4-7.3-5.5c-2.2,0.5-4.4,1-6.5,1.9c-1.3,0.5-2.8,1.5-3.5,2.7c-3,4.9-6.8,8.9-11.6,11.9c-1.6,1-3.1,2.3-4.6,3.4
				c1.1,2.5,2.8,3.1,5,2.9c2.4-0.2,4.9-0.3,7.3-0.3c9.7,0,19.3,0,29-0.1c0.7,0,1.7,0,2.1-0.5c1.6-1.6,2.9-3.4,4.3-5.1
				C314.8,213.4,317.4,211,317,208.4z"/>
			<path class="st0" d="M122.1,157.1c0.1-0.1,0.2-0.1,0.3-0.2c-0.4-1.8-0.8-3.7-1.1-5.5c0.2-0.1,0.5-0.2,0.7-0.3
				c1.9,2.6,2,6,3.4,8.8c1.4,2.9,3,5.8,4.5,8.7c0.2-0.1,0.4-0.1,0.7-0.2c-0.8-5-1.6-9.9-2.4-15.4c0.9,0.8,1.4,1,1.7,1.5
				c0.8,1.2,1.7,2.4,2.3,3.7c0.7,1.5,1.5,3.2,1.7,4.8c0.8,7.9,2.8,15.2,9.5,20.3c3,2.2,5.7,4.9,8.8,6.9c2.2,1.4,5,2.2,7.6,2.6
				c3.5,0.5,7.1,0.4,10.7,0.3c2.1,0,4.1-0.3,6.2-0.6c3.3-0.6,6.6-1.2,9.8-2c1.5-0.4,3.3-0.8,4.4-1.8c3.7-3.3,7.2-6.8,10.6-10.4
				c1.5-1.6,3-3.6,3.9-5.6c2.2-5.3,4.5-10.6,6-16.1c2.4-8.5,4.4-17.2,3.2-26.2c-0.1-0.6,0.2-1.4,0.4-2c0.3,0,0.5,0,0.8-0.1
				c0.3,0.9,0.9,1.7,1,2.6c0.4,3,0.8,6,0.9,9c0.3,7-0.5,14-2.1,20.8c-1.2,5-1.9,10.1-4.3,14.7c-1.2,2.2-2.1,4.5-3.1,6.8
				c-0.6,1.4-0.9,2.8,0.6,3.7c1.3,0.8,2.6,0.9,4-0.1c2.3-1.7,4.6-3.3,7-4.8c2.5-1.6,4.6-1,5.6,1.7c1,2.5,1.6,5.1,2.4,7.6
				c0.3,1.1,0.4,2.3,0.8,3.3c0.5,1.3,1.7,1.3,2.5,0.2c0.4-0.6,0.7-1.2,0.9-1.9c0.7-2.1,1.3-4.2,2.1-6.9c0.6,1.2,1,1.9,1.4,2.7
				c0.6,1.1,0.8,2.6,1.7,3.2c1.6,1,4.6-0.6,4.9-2.5c0.5-2.6,0.7-5.3,1.1-8c0.3-1.4,0.6-2.9,1.4-3.9c1.6-1.9,2-2.6,0.9-4.9
				c-1.2-2.6-1.1-3.3,1-5.3c2.2-2,4.3-4.2,6.8-5.7c3.7-2.3,4.6-5.5,3.8-9.6c-0.2-1.1-0.1-2.3,0-3.4c0.1-1.2,0.8-1.6,1.8-0.8
				c1,0.6,1.9,1.3,3.2,2.2c0.2-2.5,0.3-4.8,0.5-7c0.1-1.6,0.7-1.8,1.9-0.9c0.5,0.4,1.1,0.8,2.1,1.6c0.6-2.5,1.5-4.7,1.6-6.8
				c0-3-0.6-6.1-0.9-9.1c-0.1-0.8-0.3-2.2,0.1-2.5c0.7-0.5,2-0.7,2.8-0.4c1.5,0.5,2.8,1.4,4.1,2.3c1.3,0.8,2.5,1.8,3.9,2.7
				c0.9-1.4,2-2.4,2.2-3.6c0.8-4.6,1.1-9.2-0.2-13.7c-1-3.2-2.4-6.4-3.7-9.5c-1.4-3.3-3.4-6.2-6.4-8.3c-2.2-1.5-4.2-3.3-6-5.3
				c-3.9-4.3-7.7-8.8-11.3-13.3c-3.4-4.2-6.4-8.7-9.7-13c-1.4-1.8-2.9-3.8-4.7-4.8c-6.8-3.5-13.7-7-20.9-9.6c-7.3-2.7-15.1-4.1-23-3
				c-6.1,0.9-12.1,2.3-18,4c-12,3.5-22.5,9.4-30.3,19.7c-0.3,0.4-0.7,0.7-1.1,1.1c-2.2,2.5-4.5,4.8-6.6,7.4c-2.4,3-4.7,6.2-7,9.3
				c-1.6,2.1-3.5,4.1-4.8,6.4c-2.5,4.4-4.8,9-6.9,13.7c-3.1,6.8-5.8,13.8-5.4,21.4c0.4,9.7,3.2,18.9,6.7,27.9
				C121.3,156,121.8,156.5,122.1,157.1z"/>
			<path class="st0" d="M130.5,201.2c4.5,6,8.8,12.1,13.1,18.3c1,1.4,2.1,1.8,4.1,1.5c-6.1-8.9-12-17.5-17.9-26.2
				C130.1,196.9,128.9,199,130.5,201.2z"/>
			<path class="st0" d="M126.1,255.6c0,0.1,0.3,0.1,0.6,0.2c1.3-2.3,1-4.5,0.6-6.8c-0.3-1.5-0.8-3-1.1-4.5c-0.5-3.2-1.7-6-3.6-8.7
				c-1.3-1.8-3-1.6-4.3-1.2c-1.3,0.4-2.9,1.6-3.4,2.9c-1.4,3.5-0.3,6.5,2.4,9.1C120.4,249.5,124.3,251.5,126.1,255.6z"/>
			<path class="st0" d="M351.1,327.4c-4,0-7.9-0.1-11.9-0.2c-5.1,0-10.2-0.2-15.3,0c-8.1,0.3-16.3,0.9-24.4,1.1
				c-7.9,0.2-15.7,0.1-23.6-0.1c-1.2,0-2.8-0.7-3.6-1.6c-4.3-5-8.5-10.1-12.6-15.3c-1.2-1.5-2.4-1.8-4-1.7
				c-5.8,0.2-11.6,0.5-17.5,0.6c-11,0.3-22,0.6-33,0.8c-10.2,0.3-20.5,0.6-30.7,0.8c-7.7,0.1-15.3-0.3-23-0.3
				c-8.3,0-16.7,0.1-25,0.3c-1,0-2.1,0.9-2.8,1.6c-1.5,1.5-2.8,3.3-4.2,4.9c-2.4,2.8-5.2,4.4-9,3.9c-1.4-0.2-2.9,0.1-4.3,0.1
				c-2.2,0.1-2.5,0.5-2,3c0.7,0.1,1.4,0.2,2.2,0.2c2.4-0.1,4.8-0.2,7.2-0.3c0.8,0,1.7-0.1,1.7,1.1c0,1.6,0,3.2,0,4.9
				c-3.9,0.3-7.6,0.6-11.3,0.9c0,0.9,0,1.6,0,2.4c0.5,0,0.8,0.1,1.2,0.1c14.2,0,28.4,0,42.6,0c18.5,0,37,0.1,55.4,0.1
				c11.3,0,22.6-0.2,33.9-0.3c12.1-0.1,24.1-0.2,36.2-0.5c8.3-0.2,16.7-1,25-1.5c4.6-0.3,9.2-0.5,13.9-0.7c9.6-0.4,19.1-1,28.7-1.3
				c4.3-0.1,8.6,0.3,12.9,0.5C354.5,327.8,354.1,327.4,351.1,327.4z"/>
			<path class="st0" d="M111.7,306.4c0.2-1.4,0.3-2.7,0.3-4.2c0.1-9-0.6-17.9,0-27c-0.4-6.1-1.8-9.2-4.4-13.2
				c-3.6-5.5-7.5-10.7-11.1-16.2c-1.8-2.8-3.4-5.6-7.4-4.9c-1,0.2-1.5,0.4-1.5,1.5c0,1.7-0.2,3.5-0.2,5.2c0,20.5,0,41,0,61.5
				c0,2.6-0.3,5.3-0.3,7.9c-0.1,3-0.1,5.9,0,8.9c0.1,2.1,0.8,2.5,2.8,2.1c1.6-0.3,3.2-0.5,4.8-0.8c0.7-0.2,1.4-0.5,1.9-1
				c1.6-1.9,3.1-3.9,4.7-5.8c3.3-4.1,6.6-8.2,9.9-12.3C111.5,307.6,111.7,307,111.7,306.4z"/>
			<path class="st0" d="M267.3,171.9c-1.5,1.1-2.7,2.1-3.5,3.8c-1.1,2.2-2.3,4.4-3.5,6.5c-0.2,0.4-0.3,0.8-0.4,1.3
				c-0.6,1.8-1,3.6-1.8,5.4c-0.6,1.3-0.8,2.5,0.4,3.5c2.1,1.6,3.2,3.9,4,6.4c0.5,1.5,1.5,2.1,3,1.8c1.8-0.3,2.2-1.7,2.2-3.3
				c0-7.5,4.2-12.8,9.7-16.7c3.2-2.3,7.6-3.1,11.8-2.2c3.8,0.8,7.6,1.6,11.2,2.9c2.5,0.9,4,0.1,5.3-1.8c1.2-1.9,2.8-2.4,5-2.1
				c2.3,0.4,4.8,0.7,6.5-1.7c0.2-0.2,0.5-0.2,0.8-0.4c0.8,3.2,0.5,4.4,6.9,1.3c-0.5-4.5-1.5-8.7-3.8-12.4c-4.4-7-9.7-13.3-16.4-18.1
				c-4.4-3.2-9.4-5.5-14.1-8.2c-0.9,1.5-1.4,2.5-2,3.4c-1.5,2.5-1.4,3.5,0.6,5.6c2.2,2.3,2.7,5.3,3.1,8.2c0.1,0.7-0.5,1.7-1.1,2.3
				c-2.8,2.8-6.2,4.4-10,5.2c-2.4,0.5-4.4,1.4-6.2,3C272.6,167.7,270,169.9,267.3,171.9z"/>
			<path class="st0" d="M128.4,212.4c2.1,2.9,4.1,5.8,6,8.8c0.9,1.4,1.9,1.7,3.6,0.9c-3.2-5-6.3-9.8-9.5-14.7
				C126.6,210.2,126.7,210.1,128.4,212.4z"/>
			<path class="st0" d="M124.5,213.9c1.6,2.7,4.1,4.1,7.1,5.1c-1.8-2.5-3.5-5-5.6-7.8C125.3,212.2,123.5,212.2,124.5,213.9z"/>
			<path class="st0" d="M128.7,202.1c0.2,1.5,0,3.4,0.7,4.6c2.7,4.4,5.8,8.6,8.6,13c1.2,2,2.6,2.3,4.8,1.4
				c-4.5-6.5-8.9-12.9-13.4-19.3C129.2,201.9,129,202,128.7,202.1z"/>
			<path class="st0" d="M137,253.7c0,0.3,0.3,0.5,0.8,1.3c0.3-1.1,0.7-1.7,0.7-2.3c0.2-2.9,0.5-5.9,0.5-8.8c0-2.3-0.1-4.7-0.7-7
				c-0.3-1.3-1.5-2.5-2.6-3.3c-1.7-1.2-4.7-0.3-6.1,1.5c-1.1,1.4-0.9,3.9,0.5,5.9C132.9,244.9,136.2,248.6,137,253.7z"/>
			<path class="st1" d="M158.5,270.1c0,1.1,0.3,2,1.7,2c2.6-0.2,4.9-0.1,7.5-0.2c1.2-0.1,1.6,0.4,1.7,1.6c0.3,9.9,0.7,19.9,1.2,29.8
				c0,0.5,0.8,1.4,1.2,1.4c2.1,0,4.3-0.1,6.6-0.2c0.8,0,1.5-0.7,1.5-1.5v-29.1c0-0.8,0.7-1.5,1.5-1.5h6.1c0.8,0,1.5-0.7,1.5-1.5
				l0-13.5c0-0.8-0.7-1.5-1.5-1.5c-0.1,0-0.2,0-0.3,0c-22.4,0-21.5,0.1-22.6,0.1c-1.9,0-3-0.1-4.9,0c-0.5,0-1.2,0.9-1.2,1.6
				C158.5,261.9,158.3,265.6,158.5,270.1z"/>
			<path class="st1" d="M131.1,257.7c-2.8,0.1-5.5,0-8.3,0c-0.7,0-1.6,0.1-2.2,0.4c-0.5,0.3-1.2,1-1.2,1.5
				c-0.2,4.9-0.3,9.8-0.3,14.6c0,10.5,0.2,20.9,0.2,31.4c0,1,0.4,1.4,1.3,1.4c3.9-0.1,7.9-0.3,11.8-0.5c0.4,0,1.1-0.8,1.1-1.3
				c0.2-6.8,0.3-13.6,0.4-20.4c0-1.2,0.1-2.4,0.2-3.6c0.2-0.1,0.4-0.1,0.5-0.2c0.4,0.6,0.8,1.1,1.1,1.7c3,6.2,6,12.4,8.9,18.6
				c1.4,3,2.5,3.9,5.8,3.6c1-0.1,2-0.3,3-0.3c1.3-0.1,1.8-0.7,1.8-2.1c-0.4-14.8-0.8-29.5-1.2-44.3c0-1.1-0.3-2.1-1.7-2.1
				c-3.2,0-6.4,0-9.7,0c-1.3,0-2.4,1.1-2.4,2.4l0.1,15.2c-2.2-2.7-4.2-11.7-5.9-14.5C133.7,258.2,132.7,257.6,131.1,257.7z"/>
			<path class="st1" d="M213.4,304.3c3,0,6-0.1,8.7-0.2c0.3-0.5,0.4-0.5,0.4-0.6c-0.1-15.4-0.2-30.8-0.3-46.2c0-2.2-0.7-1.9-3.5-1.9
				c-2.2,0-4.4-0.2-6.6,0c-1.8,0.1-2.2,0.5-2.1,1.9c0.1,4.8,0.1,9.6,0.2,14.4c0,2-0.8,3.2-2.3,3.3c-2.8,0.2-3.7-0.3-3.8-2.6
				c-0.3-5.1-0.1-10.5-0.3-15.6c0-0.7-1-1.1-1.8-1.1c-2.4,0-4.7,0-7.1,0c-2.6,0-2.6,0-2.6,2.6c0.1,14.8,0.2,29.5,0.3,44.3
				c0,1.6,0.7,2.7,2.2,2.7c2.3,0.1,4.6-0.1,6.9,0c1.6,0,1.9-0.7,1.9-2.2c-0.1-4.7,0-9.4,0-14.1c0-0.7,0.1-1.4,0.1-2.1h8.5
				c0.1,0.6,0.1,1,0.1,1.4c-0.1,4.4-0.3,8.8-0.4,13.3C211.7,302.9,211.6,304.3,213.4,304.3z"/>
			<path class="st1" d="M234.7,254.4c-1.8,0.2-3.6,0.1-5.3-0.1c-1.6-0.2-2.4,0.1-2.4,1.7c0.1,10.8,0.2,21.6,0.3,32.3
				c0,4.4,0,8.7,0.1,13.1c0,1.5,0.5,2.8,2.2,2.8c7.5,0,15.1-0.1,22.6-0.2c3,0,3.4-0.5,3.4-3.6c0.1-8.7,0.3-17.5,0.4-26.2
				c0.1-6.2,0.1-12.3,0.1-18.5c0-0.5-0.6-1.4-0.9-1.4c-2-0.1-4.1-0.1-6.1-0.1c-0.7,0-1.8,0.9-2.1,1.1c-0.1,0-0.1,0.1-0.1,0.2
				l-0.6,40.7c0,1.1,0.5,1.1-0.6,1.1c-2.4,0-4.6-0.1-6.7,0.1c-1.6,0.1-2-0.6-2-2c0-3.1-0.1-6.2-0.1-9.2c0.1-9.8,0.3-19.6,0.4-29.5
				C237.2,255.1,236.6,254.2,234.7,254.4z"/>
			<path d="M361.9,289.4c-0.3-9.4-0.7-18.7-0.9-28.1l-7.4-59.7c-1.2-8.9-5.5-16.1-12-22.1c-1.9-1.8-3.7-4.2-4.6-6.7
				c-3-8.8-6.9-16.9-12.9-23.9c-3.4-4-6.7-8-11.1-11c-2.4-1.6-4.6-3.4-6.9-5c-1.6-1.1-2.1-2.6-2.4-4.6c-1.2-10.4-5.4-19.6-11.7-27.7
				c-1.2-1.5-2.5-3-3.3-4.6c-1.4-2.8-3.3-4.9-5.8-6.6c-3.5-2.4-3.6-3.4-3.1-7.6c0.7-5.6,0.9-11.3-1.1-16.7c-0.5-1.4-1.2-2.4-2.7-3
				c-3-1.1-5.2-3.3-6.6-6.2c-1.6-3.2-3.3-6-6.4-8.2c-3.4-2.4-6.6-4.2-10.8-3.7c-5.5,0.7-10.9,1.7-15.6,5.1c-0.6,0.5-1.9,0.4-2.7,0.1
				c-2.2-0.8-4.2-2.2-6.4-2.8c-3.9-1.1-7.8-1.8-11.7-2.6c-10.3-2.1-20.6-2.4-30.9-0.3c-5.5,1.1-10.9,1.3-16.6,0.4
				c-7.5-1.3-14.9-1.1-21.3,4.6c-5.8,5.2-9.3,11.4-10.7,19.1c-0.5,3-0.9,6-2.1,8.7c-1.2,2.7-3.2,5.1-5,7.5
				c-5.3,7-10.1,14.3-12.7,22.9c-2.2,7.2-4.9,14.4-4.4,22.1c0.2,3.9,0.8,7.8,1.3,11.6c0.9,5.9,2.8,11.5,5.4,16.8
				c0.9,1.9,1.7,3.1-0.7,4.1c-0.4,0.2-0.7,0.6-0.9,1c-2.5,4.4-6.5,7.4-10.3,10.5c-4,3.2-7.9,6.5-13.3,7.2c-5,0.7-8.7,3.4-11.7,7.4
				c-0.6,0.8-1.5,1.5-1.9,2.4c-0.8,1.5-1.9,3.1-2.1,4.8c-0.4,3.6-0.3,7.2-0.5,10.8c-0.1,1.6-0.6,3.1-1,4.6c-0.4,1.3-1.1,2.6-1.3,4
				c-0.3,3.1-0.6,6.3-0.5,9.4c0.1,2.2-0.4,3.2-2.6,4c-3,1.1-5.3,3.6-5.5,7c-0.4,6.2-0.4,12.4-0.6,18.7c-0.2,11.4-0.4,22.8-0.5,34.3
				c-0.1,7.8,0,15.5-0.1,23.3c-0.1,7.6-0.2,15.3-0.3,22.9c-0.1,15.5-1,31.9-0.1,46.5c0.3,4.5,3.1,6,5.3,4.1c2.2-1.9,4.2-2.8,4.1-6.2
				c0-7.3,0.2-14.6,0.1-21.9c-0.1-3.1,1.7-4.4,3.5-6c2.5,2.1,3.9,4.9,3.9,8c0,7.5,0,14.9,0,22.4c0,2.1,2,2.8,4,4
				c2.2,1.3,3.4-3,4.1-5c0.7-2,0.4-3.4,0.4-5.2c0-9.1-0.1-18.1,0-27.2c0-3.3,0.3-6.6,0.5-10.2c2.3,0,4.6,0,6.8,0
				c2.5,0,2.8,0.2,2.8,2.7c0.1,7.8,0.1,15.6,0.1,23.3c0,2.5,0,2.4,2.5,2.5c8.4,0.1,16.8,0.3,25.3,0.4c4.6,0.1,9.1,0,13.6,0
				c0-5.6,0.1-10.9-0.1-16.2c-0.1-1.6,0-3,1-4.1c1.5-1.6,5.1-3.1,6.6-0.8c1,1.5,1.6,3.6,1.6,5.4c0.1,4.1-0.2,8.2-0.3,12.3
				c0,1.3,1.5,2.7,2.7,2.6c3.1-0.1,6.3-0.1,9.4-0.1c9.3,0,18.6,0.1,27.9,0c8.6-0.1,17.2-0.4,25.8-0.5c5.9,0,12.9,1.2,17.7,0.3
				c3-0.6,2-5.9,2-7.3c0-1-0.5-6.2-0.2-9.1c0.3-2.3,1.8-3.7,3.1-3.6c1.2,0.1,2.4,1.9,2.5,4.1c0.1,3.5,0.2,7.1,0,10.6
				c-0.3,5.3,2.1,5.2,5.8,5c2.3,0,4.6-0.1,6.9,0c2,0.1,4-0.2,6-0.1c0.5,0,1.4-0.6,1.4-1c0.1-4.1,0.2-8.3,0.1-12.4
				c-0.1-2.1-0.9-4.2-3-5.1c-1.3-0.6-1.9-1.7-1.9-3c0.1-2.7,3-5.4,5.6-5.4c5.8-0.1,11.6,0,17.3-0.2c14.2-0.4,28.5-0.9,42.7-1.2
				c10.4-0.3,20.7-0.2,31.1-0.6c5.4-0.2,8.1-2.6,8.1-8.4c0.1-7.5,0.1-15,0.2-22.5C362,299.3,362,294.4,361.9,289.4z M77.5,344
				c-1.4,0-2.6-1.4-2.6-2.9c0-1.8,1-2.7,2.7-2.7c1.7,0,2.5,1,2.5,2.8C80.1,342.9,79,344,77.5,344z M81.9,327c-0.5-0.7-1.2-1.3-1.3-2
				c-0.3-2.5-0.4-5.1-0.4-7.7c-0.2-11.9-0.4-23.7-0.4-35.6c0-11.7,0.2-23.4,0.3-35.1c0-2.8,0-5.5,0.1-8.3c0-0.8,0.3-1.6,0.5-2.4
				c0.3,0,0.6,0.1,0.8,0.1c0.1,0.7,0.4,1.4,0.4,2.1c0.1,4.2,0.1,8.5,0.1,12.7c0.1,11.2,0.2,22.5,0.3,33.7c0.1,11.2,0,22.5,0.1,33.7
				c0,2.2,0.3,4.5,0.3,6.7C82.7,325.7,82.2,326.4,81.9,327z M349,281c0.1-2.9,0.1-5.8,0.2-8.7c0-0.8,0.1-1.7,0.5-2.2
				c0.4-0.6,1.3-1.1,2-1.1c0.5,0,1.1,0.9,1.4,1.5c0.2,0.5,0.2,1.1,0.2,1.7c0,7.8,0,15.5,0,23.3c0,0,0,0,0,0c0,7.6,0,15.3,0,22.9
				c0,1.1-0.3,2.3-0.8,3.2c-0.4,0.7-1.4,1.1-2.2,1.7c-0.5-0.8-1.3-1.6-1.4-2.4c-0.3-3.4-0.5-6.8-0.5-10.2
				C348.5,300.9,348.8,290.9,349,281z M346.1,227.3c0.6,0,1.3,0.9,1.9,1.4c-0.7,0.5-1.3,1.4-2,1.5c-1.2,0.2-2.5,0-3.8,0
				c-12.8,0.1-25.6,0.3-38.4,0.4c-8.7,0.1-17.3,0.2-26,0.3c-2.5,0-5,0-7.5,0c-1.2,0-1.6,0.5-1.6,1.6c0.2,4.5-1.9,8-4.8,11.1
				c-1.1,1.1-2.1,2.4-3,3.7c-0.9,1.4-2.1,2.1-3.8,2.2c-4.1,0.1-8.3,0.3-12.4,0.4c-6.5,0.2-13.1,0.4-19.6,0.4
				c-14.8,0.1-29.7,0-44.5,0c-6.8,0-13.6,0-20.4,0c-1.5,0-2.2,0-1.7-2.1c0.6-3.1,0.6-6.4,0.5-9.6c0-1.6,0.3-2.2,1.9-2.2
				c8.8-0.1,17.7-0.2,26.5-0.3c7.8-0.1,15.6-0.2,23.4-0.3c13.1-0.1,26.1-0.3,39.2-0.4c4.1,0,8.1,0.4,12.2,0.5c0.5,0,1.4-0.3,1.5-0.6
				c0.2-1.5,0.6-3.1,0.2-4.5c-0.3-1.3-1.6-1.1-2.9-1.2c-7.3,0.3-14.8,0.2-22.1,0.4c-8.6,0.2-17.2,0.1-25.8,0.2
				c-12.6,0.2-25.1,0.4-37.7,0.6c-4,0.1-8,0-12,0c-0.2-1.3-0.4-2.2-0.6-3.2c2.2-0.1,4.3-0.3,6.3-0.3c18.5,0,37,0,55.4-0.1
				c7,0,13.9-0.6,20.9-0.6c5.9-0.1,11.8,0.4,17.7,0.3c4.5,0,9-0.6,13.5-0.6c7-0.1,14.1,0.2,21.1,0.2c7,0,14.1-0.3,21.1-0.2
				C327.9,226.5,337,226.9,346.1,227.3z M181.6,201.5c-0.1,0.1-0.9-0.1-1.1-0.4c-0.8-1.1-1.6-2.3-2.6-3.7c1.8-0.2,3.3-0.3,4.7-0.4
				c0.1,0,0.3,0,0.4,0.1c0.2,0.4,0.6,0.9,0.5,1.1C183,199.3,182.3,200.4,181.6,201.5z M190.7,203.1c0.3-0.4,0.6-0.8,1-1.1
				c0.9-0.7,1.7-0.8,2.1,0.6c0.4,1.1,0.9,2.1,1.2,3.2c1.3,3.8,3.9,6.2,7.6,7.4c1.6,0.6,2.8,1.4,3.5,3.2c0.7,1.9,2.2,3.2,4.4,3.5
				c1.3,0.2,2.5,1,4.2,1.7c-2.8,1.7-5,3-8,3c-13.1,0-26.3,0.3-39.4,0.4c-2.5,0-5-0.1-7.5-0.2c-0.5,0-0.9-0.3-1.4-0.4
				c0.9-2.5,3.5-4.2,6.3-4c1.4,0.1,2,0,2-1.9c0-1.3,1.4-2.7,2.5-3.8c0.7-0.7,1.9-1,2.9-1.1C179.9,212.7,186,209.3,190.7,203.1z
				 M178.9,201.8c0.3,0.5,0.2,1.2,0.2,1.8c-0.6-0.1-1.4,0-1.8-0.3c-1.6-1.8-3-3.7-4.6-5.7c2.1-1.1,3.2-0.7,4.1,1.1
				C177.4,199.7,178.3,200.6,178.9,201.8z M174.5,202.5c0.6,0.9,1.3,1.7,1.9,2.5c-1.6,2.1-2.2,2.1-3.7,0.2c-1.6-2.1-3.2-4.1-4.8-6.1
				c-0.3-0.4-0.6-0.8-0.9-1.2c3.3-1,4-0.7,5.6,1.9C173.2,200.8,173.9,201.7,174.5,202.5z M172.3,207.4c-1.4,1.9-3,1.3-3.7,0.4
				c-2.5-2.9-4.6-6-6.9-9.1c-0.2-0.3-0.3-0.7-0.6-1.4c2.1,0.6,4.1,0.5,5.5,2.5C168.4,202.4,170.4,204.9,172.3,207.4z M168.3,210.1
				c-0.9,0.8-1.7,1.4-2.6,2.1c-4-5.6-7.8-11-11.7-16.4c2.3,0.4,4.7,0.3,6.3,2.8C162.6,202.6,165.5,206.2,168.3,210.1z M156.8,202.6
				c2.2,3.3,4.3,6.6,6.4,9.9c0.1,0.2,0.2,0.5,0.2,0.7c0,0.1-0.2,0.3-0.4,0.7c-1.2-1.1-2.6-1.9-3.5-3.2c-3.7-5.7-7.3-11.5-11.2-17.6
				c1.9,0.8,3.3,1.2,4.2,3C153.6,198.6,155.4,200.5,156.8,202.6z M154.6,206.1c1.9,3,3.8,6,6.1,9.4c-0.7-0.1-1.5,0-1.8-0.4
				c-1.8-2-3.5-4.1-5.2-6.3c-1.5-1.9-2.8-3.9-4.2-5.9c-1-1.4-2.1-2.8-3.1-4.3c-1.8-2.6-3.4-5.3-5.2-8.1c2,0.4,4,0.5,5.3,2.6
				C149.1,197.6,151.9,201.8,154.6,206.1z M145.1,199.6c0.8,1.7,2.2,3.1,3.3,4.7c0.8,1.1,1.7,2.2,2.5,3.4c2.1,3.1,4.1,6.2,6.3,9.6
				c-0.4,0.4-1.1,1-1.9,1.7c-8.5-11.3-16.8-22.5-25.2-33.6c-0.2,0.1-0.5,0.3-0.7,0.4c0.3,0.6,0.5,1.2,0.9,1.7
				c4,5.5,7.9,10.9,11.9,16.4c1.1,1.5,3,4.3,4.1,5.9c1.4,1.9,1.7,3.3,3.1,5.2c1.1,1.5,2.5,2.2,3.6,3.7c0.5,0.7,1.2,1.5,0.1,2.5
				c-1.1,0.9-2.1,0.8-3,0c-0.9-0.9-1.6-2-2.3-3c-3.3-4.7-6.6-9.5-9.9-14.3c-2.2-3.1-4.3-6.3-6.4-9.5c-1.2-1.8-2.5-3.6-3.4-5.6
				c-0.5-1.1-0.5-2.7-0.3-4c0.1-0.8,0.7-1.8,1.3-2.1c0.6-0.3,1.8,0,2.4,0.5C136.5,188.1,142,192.8,145.1,199.6z M236.8,295.4
				c0,1.4,0.4,2.1,2,2c2.2-0.1,4.3-0.1,6.7-0.1c1.1,0,0.6,0,0.6-1.1l0.6-40.7c0-0.1,0-0.1,0.1-0.2c0.3-0.2,1.4-1.1,2.1-1.1
				c2,0,4.1,0,6.1,0.1c0.3,0,0.9,0.9,0.9,1.4c0,6.2,0,12.3-0.1,18.5c-0.1,8.7-0.3,17.5-0.4,26.2c0,3.1-0.4,3.6-3.4,3.6
				c-7.5,0.1-15.1,0.2-22.6,0.2c-1.6,0-2.2-1.3-2.2-2.8c0-4.4,0-8.7-0.1-13.1c-0.1-10.8-0.1-21.6-0.3-32.3c0-1.7,0.7-1.9,2.4-1.7
				c1.8,0.2,3.6,0.3,5.3,0.1c2-0.2,2.5,0.7,2.5,2.3c-0.1,9.8-0.3,19.6-0.4,29.5C236.7,289.3,236.8,292.3,236.8,295.4z M212,287h-8.5
				c0,0.8-0.1,1.4-0.1,2.1c0,4.7-0.1,9.4,0,14.1c0,1.5-0.3,2.3-1.9,2.2c-2.3,0-4.6,0.2-6.9,0c-1.5-0.1-2.2-1.1-2.2-2.7
				c-0.1-14.8-0.2-29.5-0.3-44.3c0-2.7,0-2.7,2.6-2.6c2.4,0,4.8,0,7.1,0c0.7,0,1.7,0.4,1.8,1.1c0.2,5.1,0,10.5,0.3,15.6
				c0.1,2.3,1,2.8,3.8,2.6c1.5-0.1,2.3-1.3,2.3-3.3c0-4.8-0.1-9.6-0.2-14.4c0-1.4,0.4-1.7,2.1-1.9c2.2-0.2,4.4,0,6.6,0
				c2.8,0,3.5-0.3,3.5,1.9c0.1,15.4,0.2,30.8,0.3,46.2c0,0.1-0.1,0.1-0.4,0.6c-2.7,0.1-5.7,0.2-8.7,0.2c-1.8,0-1.6-1.4-1.6-2.6
				c0.1-4.4,0.3-8.8,0.4-13.3C212.2,288,212.1,287.5,212,287z M158.4,257.5c0-0.7,0.7-1.6,1.2-1.6c1.9-0.1,3,0,4.9,0
				c1.1,0,0.2-0.1,22.6-0.1c0.1,0,0.2,0,0.3,0c0.8,0,1.5,0.7,1.5,1.5l0,13.5c0,0.8-0.7,1.5-1.5,1.5h-6.1c-0.8,0-1.5,0.7-1.5,1.5V303
				c0,0.8-0.6,1.5-1.5,1.5c-2.3,0.1-4.4,0.2-6.6,0.2c-0.4,0-1.2-0.9-1.2-1.4c-0.4-9.9-0.8-19.9-1.2-29.8c0-1.3-0.5-1.7-1.7-1.6
				c-2.6,0.1-4.9,0.1-7.5,0.2c-1.4,0.1-1.7-0.8-1.7-2C158.3,265.6,158.5,261.9,158.4,257.5z M142.5,239.6c-0.9-2.3-1.2-4.6-0.1-5.8
				c1.3-1.4,4.5-1.9,6.5-1.1c3.4,1.5,3.7,4.5,3.8,7.6c0.2,3.7-0.3,7.3-2.9,10c-1.2,1.3-2.9,2-4.4,3c-0.1,0-1-0.9-0.9-1.2
				C145.9,247.7,144.1,243.6,142.5,239.6z M129.8,194.7c5.9,8.6,11.8,17.3,17.9,26.2c-2,0.3-3.1,0-4.1-1.5
				c-4.3-6.2-8.6-12.3-13.1-18.3C128.9,199,130.1,196.9,129.8,194.7z M142.9,221.1c-2.3,0.9-3.6,0.6-4.8-1.4
				c-2.8-4.4-5.9-8.6-8.6-13c-0.7-1.2-0.5-3-0.7-4.6c0.3-0.1,0.6-0.2,0.9-0.3C134,208.2,138.4,214.6,142.9,221.1z M128.5,207.4
				c3.2,5,6.3,9.8,9.5,14.7c-1.8,0.8-2.7,0.5-3.6-0.9c-1.9-3-3.9-5.9-6-8.8C126.7,210.1,126.6,210.2,128.5,207.4z M131.6,219
				c-3-1-5.5-2.4-7.1-5.1c-1-1.7,0.9-1.7,1.5-2.7C128,214,129.8,216.5,131.6,219z M129.7,235c1.4-1.8,4.4-2.7,6.1-1.5
				c1.1,0.8,2.3,2.1,2.6,3.3c0.6,2.2,0.7,4.6,0.7,7c0,2.9-0.3,5.9-0.5,8.8c0,0.6-0.4,1.3-0.7,2.3c-0.5-0.8-0.8-1-0.8-1.3
				c-0.7-5.1-4-8.8-6.8-12.8C128.8,238.9,128.5,236.4,129.7,235z M140.3,258.8c0-1.3,1.1-2.4,2.4-2.4c3.3,0,6.5,0,9.7,0
				c1.4,0,1.7,1,1.7,2.1c0.4,14.8,0.7,29.5,1.2,44.3c0,1.4-0.5,2-1.8,2.1c-1,0-2,0.2-3,0.3c-3.3,0.3-4.4-0.5-5.8-3.6
				c-2.9-6.3-5.9-12.4-8.9-18.6c-0.3-0.6-0.7-1.1-1.1-1.7c-0.2,0.1-0.4,0.1-0.5,0.2c-0.1,1.2-0.1,2.4-0.2,3.6
				c-0.1,6.8-0.2,13.6-0.4,20.4c0,0.5-0.7,1.2-1.1,1.3c-3.9,0.2-7.9,0.4-11.8,0.5c-0.9,0-1.3-0.4-1.3-1.4c0-10.5-0.2-20.9-0.2-31.4
				c0-4.9,0.1-9.8,0.3-14.6c0-0.5,0.7-1.2,1.2-1.5c0.6-0.3,1.4-0.4,2.2-0.4c2.8,0,5.5,0.1,8.3,0c1.6-0.1,2.6,0.6,3.4,1.8
				c1.8,2.8,3.7,11.8,5.9,14.5L140.3,258.8z M317.2,216.2c-1.4,1.6-2.7,3.5-4.3,5.1c-0.4,0.4-1.4,0.5-2.1,0.5c-9.7,0-19.3,0-29,0.1
				c-2.4,0-4.9,0.1-7.3,0.3c-2.2,0.2-3.9-0.4-5-2.9c1.5-1.1,3-2.4,4.6-3.4c4.8-3,8.6-7,11.6-11.9c0.7-1.2,2.2-2.1,3.5-2.7
				c2.1-0.9,4.3-1.4,6.5-1.9c3.9-0.9,6.9,1.4,7.3,5.5c0,0.1,0,0.3,0,0.4c0.3,3.8,2.6,6.4,6.4,6.6c1.2,0.1,2.5-0.9,3.6-1.6
				c1.2-0.9,2.2-2.4,4.1-1.8C317.4,211,314.8,213.4,317.2,216.2z M291.2,157.2c0.6-0.6,1.2-1.6,1.1-2.3c-0.4-3-0.9-6-3.1-8.2
				c-2-2.1-2.1-3.1-0.6-5.6c0.6-1,1.2-2,2-3.4c4.8,2.7,9.7,5.1,14.1,8.2c6.7,4.8,12,11.1,16.4,18.1c2.3,3.7,3.3,8,3.8,12.4
				c-6.4,3.1-6.1,2-6.9-1.3c-0.3,0.1-0.7,0.2-0.8,0.4c-1.7,2.4-4.2,2.1-6.5,1.7c-2.2-0.4-3.8,0.2-5,2.1c-1.2,1.9-2.7,2.7-5.3,1.8
				c-3.6-1.3-7.5-2.1-11.2-2.9c-4.2-0.9-8.6,0-11.8,2.2c-5.5,3.9-9.7,9.2-9.7,16.7c0,1.6-0.4,2.9-2.2,3.3c-1.6,0.3-2.6-0.3-3-1.8
				c-0.8-2.5-1.8-4.7-4-6.4c-1.2-0.9-1-2.1-0.4-3.5c0.7-1.7,1.2-3.6,1.8-5.4c0.1-0.4,0.2-0.9,0.4-1.3c1.2-2.2,2.4-4.3,3.5-6.5
				c0.8-1.7,2-2.7,3.5-3.8c2.7-1.9,5.3-4.1,7.7-6.4c1.8-1.6,3.8-2.5,6.2-3C285,161.6,288.4,160,291.2,157.2z M114.3,127.4
				c-0.3-7.6,2.3-14.6,5.4-21.4c2.1-4.6,4.4-9.2,6.9-13.7c1.3-2.3,3.2-4.3,4.8-6.4c2.3-3.1,4.6-6.3,7-9.3c2.1-2.6,4.4-4.9,6.6-7.4
				c0.3-0.4,0.8-0.7,1.1-1.1c7.8-10.3,18.3-16.2,30.3-19.7c5.9-1.7,11.9-3.1,18-4c7.8-1.2,15.6,0.3,23,3c7.2,2.7,14.1,6.2,20.9,9.6
				c1.9,1,3.4,3,4.7,4.8c3.3,4.3,6.3,8.8,9.7,13c3.6,4.6,7.4,9,11.3,13.3c1.8,2,3.8,3.7,6,5.3c3,2.1,5,5,6.4,8.3
				c1.3,3.1,2.7,6.2,3.7,9.5c1.3,4.5,1,9.1,0.2,13.7c-0.2,1.2-1.3,2.2-2.2,3.6c-1.4-1-2.6-1.9-3.9-2.7c-1.3-0.8-2.7-1.7-4.1-2.3
				c-0.8-0.3-2.1-0.1-2.8,0.4c-0.4,0.3-0.2,1.6-0.1,2.5c0.3,3,1,6.1,0.9,9.1c0,2.1-0.9,4.3-1.6,6.8c-1-0.8-1.5-1.2-2.1-1.6
				c-1.2-0.9-1.8-0.6-1.9,0.9c-0.2,2.2-0.3,4.4-0.5,7c-1.3-0.9-2.3-1.5-3.2-2.2c-1.1-0.7-1.7-0.3-1.8,0.8c-0.1,1.1-0.2,2.3,0,3.4
				c0.9,4.1-0.1,7.2-3.8,9.6c-2.5,1.6-4.7,3.7-6.8,5.7c-2.1,2-2.2,2.7-1,5.3c1,2.3,0.7,2.9-0.9,4.9c-0.8,1-1.2,2.6-1.4,3.9
				c-0.5,2.6-0.6,5.3-1.1,8c-0.4,1.9-3.3,3.5-4.9,2.5c-0.9-0.6-1.2-2.1-1.7-3.2c-0.4-0.8-0.8-1.5-1.4-2.7c-0.8,2.7-1.4,4.8-2.1,6.9
				c-0.2,0.7-0.5,1.3-0.9,1.9c-0.8,1.1-2,1.1-2.5-0.2c-0.4-1-0.5-2.2-0.8-3.3c-0.7-2.5-1.4-5.1-2.4-7.6c-1.1-2.8-3.1-3.3-5.6-1.7
				c-2.4,1.5-4.8,3.1-7,4.8c-1.4,1.1-2.7,0.9-4,0.1c-1.5-0.9-1.3-2.3-0.6-3.7c1-2.3,2-4.6,3.1-6.8c2.4-4.6,3.2-9.7,4.3-14.7
				c1.6-6.8,2.4-13.8,2.1-20.8c-0.1-3-0.5-6-0.9-9c-0.1-0.9-0.6-1.7-1-2.6c-0.3,0-0.5,0-0.8,0.1c-0.1,0.7-0.5,1.4-0.4,2
				c1.2,9-0.7,17.7-3.2,26.2c-1.6,5.5-3.8,10.8-6,16.1c-0.9,2.1-2.4,4-3.9,5.6c-3.4,3.6-6.9,7.1-10.6,10.4c-1.1,1-2.9,1.5-4.4,1.8
				c-3.2,0.8-6.5,1.4-9.8,2c-2,0.3-4.1,0.6-6.2,0.6c-3.6,0-7.2,0.2-10.7-0.3c-2.6-0.4-5.3-1.2-7.6-2.6c-3.1-1.9-5.8-4.6-8.8-6.9
				c-6.7-5-8.7-12.3-9.5-20.3c-0.2-1.6-1-3.3-1.7-4.8c-0.6-1.3-1.5-2.5-2.3-3.7c-0.3-0.4-0.8-0.7-1.7-1.5c0.9,5.5,1.7,10.5,2.4,15.4
				c-0.2,0.1-0.4,0.1-0.7,0.2c-1.5-2.9-3-5.8-4.5-8.7c-1.4-2.8-1.6-6.2-3.4-8.8c-0.2,0.1-0.5,0.2-0.7,0.3c0.4,1.8,0.8,3.7,1.1,5.5
				c-0.1,0.1-0.2,0.1-0.3,0.2c-0.4-0.6-0.9-1.1-1.1-1.8C117.5,146.4,114.7,137.1,114.3,127.4z M114.9,237.5c0.5-1.3,2.1-2.4,3.4-2.9
				c1.4-0.4,3-0.7,4.3,1.2c1.9,2.7,3.1,5.5,3.6,8.7c0.2,1.5,0.7,3,1.1,4.5c0.5,2.3,0.7,4.5-0.6,6.8c-0.3-0.1-0.6-0.1-0.6-0.2
				c-1.9-4.1-5.8-6.1-8.8-9C114.7,244,113.5,241,114.9,237.5z M104,238.2c0.5-0.3,1.5,0,2.1,0.3c2.5,1.4,4.1,3.7,4.7,6.4
				c0.8,3.3,1.2,6.7,1.6,10.1c0.2,1.5,0.2,3,0.4,4.9c-4-4.8-7.8-9-11.3-13.4C98.8,243.1,100.5,239.9,104,238.2z M101.3,320.3
				c-1.6,1.9-3,3.9-4.7,5.8c-0.4,0.5-1.2,0.9-1.9,1c-1.6,0.4-3.2,0.5-4.8,0.8c-2.1,0.4-2.7-0.1-2.8-2.1c-0.1-3-0.1-5.9,0-8.9
				c0.1-2.6,0.3-5.3,0.3-7.9c0-20.5,0-41,0-61.5c0-1.7,0.1-3.5,0.2-5.2c0-1.1,0.5-1.3,1.5-1.5c4-0.8,5.6,2.1,7.4,4.9
				c3.6,5.4,7.5,10.7,11.1,16.2c2.6,4,4,7.1,4.4,13.2c-0.6,9.1,0.1,18,0,27c0,1.6-0.1,2.8-0.3,4.2c-0.1,0.5-0.2,1.2-0.6,1.6
				C107.9,312.1,104.6,316.2,101.3,320.3z M353.8,331c-4.3-0.2-8.6-0.6-12.9-0.5c-9.6,0.3-19.2,0.8-28.7,1.3
				c-4.6,0.2-9.2,0.4-13.9,0.7c-8.3,0.5-16.7,1.2-25,1.5c-12.1,0.4-24.1,0.4-36.2,0.5c-11.3,0.1-22.6,0.3-33.9,0.3
				c-18.5,0-37-0.1-55.4-0.1c-14.2,0-28.4,0-42.6,0c-0.3,0-0.6,0-1.2-0.1c0-0.8,0-1.4,0-2.4c3.7-0.3,7.4-0.6,11.3-0.9
				c0-1.7,0-3.3,0-4.9c0-1.3-0.9-1.2-1.7-1.1c-2.4,0.1-4.8,0.2-7.2,0.3c-0.7,0-1.5-0.1-2.2-0.2c-0.5-2.5-0.2-2.9,2-3
				c1.4-0.1,2.9-0.3,4.3-0.1c3.8,0.4,6.7-1.1,9-3.9c1.4-1.7,2.7-3.4,4.2-4.9c0.7-0.8,1.8-1.6,2.8-1.6c8.3-0.2,16.7-0.3,25-0.3
				c7.7,0,15.3,0.4,23,0.3c10.2-0.1,20.5-0.5,30.7-0.8c11-0.3,22-0.5,33-0.8c5.8-0.2,11.7-0.4,17.5-0.6c1.7-0.1,2.9,0.2,4,1.7
				c4.1,5.2,8.3,10.3,12.6,15.3c0.8,0.9,2.4,1.6,3.6,1.6c7.9,0.2,15.7,0.3,23.6,0.1c8.1-0.2,16.3-0.8,24.4-1.1
				c5.1-0.2,10.2,0,15.3,0c4,0,7.9,0.1,11.9,0.2C354.1,327.4,354.5,327.8,353.8,331z"/>
		</g>
		<g>
			<path class="st1" d="M124.1,65.9c0.6,0.4,1.9-1.2,2.9-2.2c0.2-0.2,0.1-0.1,0-0.4c-0.5-1-1.3-2.3-2.4-3.7
				c-1.5-2.1-4.6-6.4-8.7-10.8c-1.3-1.4-2.4-2.5-3.1-3.2c-0.2-0.2-0.6-0.4-1.2-0.4c-0.8,0.1-1.1,0.6-1.6,1.1c-2.7,3.3-4,5-6.4,8.4
				c-2.6,3.8-3.6,6.1,0.4,8.4c4.5,2.7,7.1,6.4,9.6,11.1c0.2,0.3,0.6,0.9,0,2.1c-1.4,3-4.5,7.4-6.3,6.7c-0.5-0.1-2-0.9-3-1.5
				c-1.1-0.7-2.9-1.8-4.1-2.3c-2.2-1.1-4.2-2.4-6.3-3.5c-2.1-1.1-2.6-0.4-3.4,1.3c-0.3,0.6-0.7,1,2.5,2.6c3,1.5,5.8,3,8.6,4.8
				c2.1,1.4,4.3,2.5,6.3,4c1.2,0.9,2,0.5,2.8-0.7c2.1-3.6,4.5-6,6.3-9.7c0.5-1,0.3-2.4,0.1-3.2c-0.7-2.1-3.7-5.7-6-8.7
				c-1.2-1.6-2.9-2.9-4.5-4.3c-1.2-1-1.4-2.6-0.5-3.9c1.7-2.4,3.9-4.3,5.8-6.5c0.4-0.5,0.7-1.4,1.7,0.1c2.3,3.4,4.8,6.3,7,9.7
				C122.4,63.9,123.3,65.4,124.1,65.9z"/>
			<path d="M129.4,62.8c-1.8-3.7-3.1-4.8-5.2-8.3c-2.3-3.8-8.5-9.6-11.2-13.1c-0.6-0.8-1.4-1.3-2.4-0.3
				c-5.9,5.9-10.7,12.5-14.3,20.1c-0.2,0.4-0.2,1.5,0.2,1.7c1.5,1.2,2.1,1.9,3.5,2.7c3.8,2.3,7.4,6.1,9.6,8.4
				c0.5,0.5,0.6,1.5,0.4,2.1c-0.3,0.9-0.9,1.6-1.3,2.4c-0.7,1.5-1.8,0.3-3.8-1c0,0,0,0,0,0c-4.6-2.4-6.7-3.8-13.2-6.5
				c-1.2-0.5-2.6,0-3.3,1.1c-1.3,2-2.1,4-2.8,6.2c-0.3,1,0,2,1.1,2.5c0.7,0.3,1.4,0.6,2,1c6.3,3.7,12.6,7.3,18.8,11.1
				c2.6,1.6,3.5,1.6,5.2-0.9c2.2-3.4,4.3-6.9,6.4-10.4c0.9-1.5,0.8-1.4,1.8-3.1c0.2-0.4,0.9-2.8,0-3.9c-3.6-4.7-6.2-8.5-9.7-13.3
				c-0.3-0.4-2.1-2.3-2-2.7c0.4-1.1,0.5-1,1.3-1.9c0.5-0.6,1.7-1.8,2-1.5c1.6,1.8,8.7,11.3,9.7,12.2c0.2,0.1,0.7,0.6,1.4,0.6
				c0.4,0,0.7,0,0.9-0.1c0.7-0.2,1.6-0.7,1.8-0.9C127.8,65.8,130.1,64.3,129.4,62.8z M113.7,51.7c-1-1.4-1.2-0.6-1.7-0.1
				c-1.9,2.2-4.1,4.1-5.8,6.5c-0.9,1.2-0.7,2.9,0.5,3.9c1.7,1.4,3.3,2.7,4.5,4.3c2.3,3,5.3,6.7,6,8.7c0.2,0.7,0.4,2.1-0.1,3.2
				c-1.8,3.7-4.2,6.1-6.3,9.7c-0.7,1.3-1.6,1.6-2.8,0.7c-2-1.5-4.2-2.6-6.3-4c-2.9-1.8-5.6-3.3-8.6-4.8c-3.2-1.6-2.8-2-2.5-2.6
				c0.7-1.7,1.3-2.4,3.4-1.3c2.1,1.2,4.1,2.5,6.3,3.5c1.2,0.6,2.9,1.7,4.1,2.3c1,0.6,2.5,1.4,3,1.5c1.8,0.7,4.9-3.7,6.3-6.7
				c0.6-1.2,0.1-1.8,0-2.1c-2.5-4.7-5-8.4-9.6-11.1c-4-2.3-3-4.6-0.4-8.4c2.4-3.5,3.7-5.2,6.4-8.4c0.5-0.6,0.8-1.1,1.6-1.1
				c0.5,0,0.9,0.2,1.2,0.4c0.7,0.7,1.8,1.8,3.1,3.2c4.1,4.4,7.1,8.7,8.7,10.8c1,1.4,1.9,2.7,2.4,3.7c0.1,0.3,0.2,0.2,0,0.4
				c-1,1-2.3,2.5-2.9,2.2c-0.8-0.5-1.6-2-3.3-4.5C118.5,58,116,55.1,113.7,51.7z"/>
		</g>
		<rect x="155.3" y="361" class="st1" width="79.1" height="2.1"/>
		<rect x="244.2" y="361" class="st1" width="15.9" height="2"/>
		<rect x="105.1" y="361" class="st1" width="31.7" height="2"/>
		<path class="st1" d="M214.8,128.3c-0.1,0.7-0.5,1.4-0.4,2c1.2,9-0.7,17.7-3.2,26.2c-1.6,5.5-3.8,10.8-6,16.1
			c-0.9,2.1-2.4,4-3.9,5.6c-3.4,3.6-6.9,7.1-10.6,10.4c-1.1,1-2.9,1.5-4.4,1.8c-3.2,0.8-6.5,1.4-9.8,2c-2,0.3-4.1,0.6-6.2,0.6
			c-3.6,0-7.2,0.2-10.7-0.3c-2.6-0.4-5.3-1.2-7.6-2.6c-3.1-1.9-5.8-4.6-8.8-6.9c-6.7-5-8.7-12.3-9.5-20.3c-0.2-1.6-1-3.3-1.7-4.8
			c-0.6-1.3-1.5-2.5-2.3-3.7c-0.3-0.4-0.8-0.7-1.7-1.5c0.9,5.5,1.7,10.5,2.4,15.4c-0.2,0.1-0.4,0.1-0.7,0.2c-1.5-2.9-3-5.8-4.5-8.7
			c-1.4-2.8-1.6-6.2-3.4-8.8c-0.2,0.1-0.5,0.2-0.7,0.3c0.4,1.8,0.8,3.7,1.1,5.5c-0.1,0.1-0.2,0.1-0.3,0.2c-0.4-0.6-0.9-1.1-1.1-1.8
			c-3.6-9-6.4-18.2-6.7-27.9c-0.3-7.6,2.3-14.6,5.4-21.4c2.1-4.6,4.4-9.2,6.9-13.7c1.3-2.3,3.2-4.3,4.8-6.4c2.3-3.1,4.6-6.3,7-9.3
			c2.1-2.6,4.4-4.9,6.6-7.4c0.3-0.4,0.8-0.7,1.1-1.1c7.8-10.3,18.3-16.2,30.3-19.7c5.9-1.7,11.9-3.1,18-4c7.8-1.2,15.6,0.3,23,3
			c7.2,2.7,14.1,6.2,20.9,9.6c1.9,1,3.4,3,4.7,4.8c3.3,4.3,6.3,8.8,9.7,13c3.6,4.6,7.4,9,11.3,13.3c1.8,2,3.8,3.7,6,5.3
			c3,2.1,5,5,6.4,8.3c1.3,3.1,2.7,6.2,3.7,9.5c1.3,4.5,1,9.1,0.2,13.7c-0.2,1.2-1.3,2.2-2.2,3.6c-1.4-1-2.6-1.9-3.9-2.7
			c-1.3-0.8-2.7-1.7-4.1-2.3c-0.8-0.3-2.1-0.1-2.8,0.4c-0.4,0.3-0.2,1.6-0.1,2.5c0.3,3,1,6.1,0.9,9.1c0,2.1-0.9,4.3-1.6,6.8
			c-1-0.8-1.5-1.2-2.1-1.6c-1.2-0.9-1.8-0.6-1.9,0.9c-0.2,2.2-0.3,4.4-0.5,7c-1.3-0.9-2.3-1.5-3.2-2.2c-1.1-0.7-1.7-0.3-1.8,0.8
			c-0.1,1.1-0.2,2.3,0,3.4c0.9,4.1-0.1,7.2-3.8,9.6c-2.5,1.6-4.7,3.7-6.8,5.7c-2.1,2-2.2,2.7-1,5.3c1,2.3,0.7,2.9-0.9,4.9
			c-0.8,1-1.2,2.6-1.4,3.9c-0.5,2.6-0.6,5.3-1.1,8c-0.4,1.9-3.3,3.5-4.9,2.5c-0.9-0.6-1.2-2.1-1.7-3.2c-0.4-0.8-0.8-1.5-1.4-2.7
			c-0.8,2.7-1.4,4.8-2.1,6.9c-0.2,0.7-0.5,1.3-0.9,1.9c-0.8,1.1-2,1.1-2.5-0.2c-0.4-1-0.5-2.2-0.8-3.3c-0.7-2.5-1.4-5.1-2.4-7.6
			c-1.1-2.8-3.1-3.3-5.6-1.7c-2.4,1.5-4.8,3.1-7,4.8c-1.4,1.1-2.7,0.9-4,0.1c-1.5-0.9-1.3-2.3-0.6-3.7c1-2.3,2-4.6,3.1-6.8
			c2.4-4.6,3.2-9.7,4.3-14.7c1.6-6.8,2.4-13.8,2.1-20.8c-0.1-3-0.5-6-0.9-9c-0.1-0.9-0.6-1.7-1-2.6
			C215.3,128.2,215.1,128.3,214.8,128.3z M210.2,110.2c0.2-0.1,0.5-0.1,0.7-0.2c0.4-1,0.9-1.9,1.1-3c0.6-3.3,1.5-4.7,4.5-5.2
			c2.2-0.4,3.6-1.3,5.2-2.9c2.1-2.2,1.6-4.5,1.1-6.8c-0.4-2.2-1.7-4-4.4-3.9c-1.2,0-2.5-0.2-3.7-0.5c-2.9-0.7-5.7-1.5-7.9-4.1
			c-2.8-3.4-6.1-6.5-11-6.5c-2.5,0-5.2-0.5-6.7,1.8c-1.8,2.6-4.2,2.7-6.5,2c-6.2-1.9-12.4-1.5-18.6-0.6c-6.4,1-11.9,4.5-17.7,6.8
			c-1,0.4-2.1,0.7-3.2,0.7c-2.3,0-4.3,0.6-6.1,2.2c-3.3,2.9-5.2,6.7-6.8,10.7c-0.3,0.7-0.4,1.5-0.7,2.1c-1.5,2.7-3.3,5.3-4.5,8.2
			c-2.1,5.1-2.3,10.6,0,15.5c1.9,4,4.8,7.4,7.6,10.9c1.9,2.4,3.7,4.6,4.4,7.7c0.3,1.4,0.8,2.8,1.3,4.2c0.2,0.5,0.9,0.9,1.4,1.3
			c0.3-0.6,1-1.2,0.9-1.7c-0.5-3.2-0.6-6.7-2-9.5c-2-4.1-4.8-8-7.7-11.5c-4.2-5-4.4-10.4-2.3-16.2c0.6-1.7,1.9-3.2,3-5.1
			c1.9,2,3.9,1.6,5.9,1.2c5-1.1,10-0.9,14.9,0.7c1,0.3,2,1.1,2.6,2c1.1,1.5,1.9,3.2,2.7,4.8c1,1.9,0.6,2.6-1.2,3.6
			c-4.3,2.6-8.7,5.1-12.8,7.9c-2.7,3.5-4.4,7.1-1,9.8c1.2,0.9,2.5,1.8,3.8,2.5c4,2.1,6.7,5.3,7.3,9.9c0.9,6.9,0.6,13.7-1.3,20.4
			c-0.7,2.6-1,5.4-1.1,8.1c-0.1,2.4,2.7,5.3,5,5.5c4.7,0.2,9.4,0.4,14.1,0.4c1.8,0,3.8,0,5.4-0.7c3.7-1.8,7.4-3.7,9.7-7.4
			c0.7-1.1,1.3-2.2,2.1-3.2c4-4.9,6.2-10.8,7.8-16.7c3-11,2.5-22.3,2.3-33.5c0-1.3-0.5-2.2-1.9-2.4c-1.5-0.3-3-0.8-4.6-1.1
			c-8.2-1.7-16.4-3-24.8-2c-1.3,0.2-2.7,0.2-4.1,0.4c-0.4-6.3,2.6-10.9,6.7-14.4c4.7-4.1,7.7-8.8,9.3-14.8c0.1-0.4,1-1.1,1.3-1
			c2.7,0.7,5.4,1.3,7.9,2.5c2.8,1.4,5.2,3.5,7.9,5.2c4.4,2.8,8.5,5.9,11.1,10.7C207.6,106.9,209,108.5,210.2,110.2z"/>
		<path class="st1" d="M273.2,334c-55.5,1.2-112.6,0.7-169.3,0.6c0-0.8,0-1.4,0-2.4c3.7-0.3,7.4-0.6,11.3-0.9c0-1.7,0-3.3,0-4.9
			c0-1.3-0.9-1.2-1.7-1.1c-2.4,0.1-4.8,0.2-7.2,0.3c-0.7,0-1.5-0.1-2.2-0.2c-0.5-2.5-0.2-2.9,2-3c1.4-0.1,2.9-0.3,4.3-0.1
			c3.8,0.4,6.7-1.1,9-3.9c1.4-1.7,2.7-3.4,4.2-4.9c0.7-0.8,1.8-1.6,2.8-1.6c8.3-0.2,16.7-0.3,25-0.3c7.7,0,15.3,0.4,23,0.3
			c10.2-0.1,20.5-0.5,30.7-0.8c11-0.3,22-0.5,33-0.8c5.8-0.2,11.7-0.4,17.5-0.6c1.7-0.1,2.9,0.2,4,1.7c4.1,5.2,8.3,10.3,12.6,15.3
			c0.8,0.9,2.4,1.6,3.6,1.6c7.9,0.2,15.7,0.3,23.6,0.1c12.5-0.4,25.8-1.5,39.7-1.1c4,0,7.9,0.1,11.9,0.2c3.1,0,3.4,0.5,2.7,3.6
			 M269.9,330.2c0.2-3.9-2.5-6.7-6.3-6.7c-2.5,0-5,0.3-7.5,0.4c-18.2,0.2-36.5,0.3-54.7,0.5c-9,0.1-18,0.3-27,0.2
			c-8.3-0.1-16.6-0.7-24.8-0.9c-7.9-0.2-15.8-0.1-23.7-0.2c-4.7,0-3.8-0.2-3.9,4c-0.1,1.7,0.6,2,2.1,2c6.2-0.1,12.4-0.1,18.7,0
			c8,0.1,16,0.4,23.9,0.5c12.9,0.2,25.9,0.4,38.8,0.5c12.5,0.1,25,0,37.5-0.1c5.3,0,10.5-0.2,15.8-0.3
			C262.4,330.1,266.1,330.2,269.9,330.2z"/>
		<path class="st1" d="M163.4,230.9c-0.2-1.3-0.4-2.2-0.6-3.2c2.2-0.1,4.3-0.3,6.3-0.3c18.5,0,37,0,55.4-0.1c7,0,13.9-0.6,20.9-0.6
			c5.9-0.1,11.8,0.4,17.7,0.3c4.5,0,9-0.6,13.5-0.6c7-0.1,14.1,0.2,21.1,0.2c7,0,14.1-0.3,21.1-0.2c9.1,0.1,18.2,0.6,27.3,1
			c0.6,0,1.3,0.9,1.9,1.4c-0.7,0.5-1.3,1.4-2,1.5c-1.2,0.2-2.5,0-3.8,0c-12.8,0.1-25.6,0.3-38.4,0.4c-8.7,0.1-17.3,0.2-26,0.3
			c-2.5,0-5,0-7.5,0c-1.2,0-1.6,0.5-1.6,1.6c0.2,4.5-1.9,8-4.8,11.1c-1.1,1.1-2.1,2.4-3,3.7c-0.9,1.4-2.1,2.1-3.8,2.2
			c-4.1,0.1-8.3,0.3-12.4,0.4c-6.5,0.2-13.1,0.4-19.6,0.4c-14.8,0.1-29.7,0-44.5,0c-6.8,0-13.6,0-20.4,0c-1.5,0-2.2,0-1.7-2.1
			c0.6-3.1,0.6-6.4,0.5-9.6c0-1.6,0.3-2.2,1.9-2.2c8.8-0.1,17.7-0.2,26.5-0.3c7.8-0.1,15.6-0.2,23.4-0.3c13.1-0.1,26.1-0.3,39.2-0.4
			c4.1,0,8.1,0.4,12.2,0.5c0.5,0,1.4-0.3,1.5-0.6c0.2-1.5,0.6-3.1,0.2-4.5c-0.5-1.2-1.3-1-2.9-1.2c-7.3,0.3-14.8,0.2-22.1,0.4
			c-8.6,0.2-17.2,0.1-25.8,0.2c-12.6,0.2-25.1,0.4-37.7,0.6C171.4,230.9,167.4,230.9,163.4,230.9z"/>
		<path class="st1" d="M112,275.2c0.2,9.3-0.1,18,0.2,26.8c0.1,1.4-0.3,3-0.5,4.4c-0.1,0.5-0.2,1.2-0.6,1.6
			c-3.3,4.1-6.6,8.2-9.9,12.3c-1.6,1.9-3,3.9-4.7,5.8c-0.4,0.5-1.2,0.9-1.9,1c-1.6,0.4-3.2,0.5-4.8,0.8c-2.1,0.4-2.7-0.1-2.8-2.1
			c-0.1-3-0.1-5.9,0-8.9c0.1-2.6,0.3-5.3,0.3-7.9c0-20.5,0-41,0-61.5c0-1.7,0.1-3.5,0.2-5.2c0-1.1,0.5-1.3,1.5-1.5
			c4-0.8,5.6,2.1,7.4,4.9c3.6,5.4,7.5,10.7,11.1,16.2C110.2,266,112,268.5,112,275.2z"/>
		<path class="st1" d="M324.9,176.4c-6.4,3.1-6.1,2-6.9-1.3c-0.3,0.1-0.7,0.2-0.8,0.4c-1.7,2.4-4.2,2.1-6.5,1.7
			c-2.2-0.4-3.8,0.2-5,2.1c-1.2,1.9-2.7,2.7-5.3,1.8c-3.6-1.3-7.5-2.1-11.2-2.9c-4.2-0.9-8.6,0-11.8,2.2c-5.5,3.9-9.7,9.2-9.7,16.7
			c0,1.6-0.4,2.9-2.2,3.3c-1.6,0.3-2.6-0.3-3-1.8c-0.8-2.5-1.8-4.7-4-6.4c-1.2-0.9-1-2.1-0.4-3.5c0.7-1.7,1.2-3.6,1.8-5.4
			c0.1-0.4,0.2-0.9,0.4-1.3c1.2-2.2,2.4-4.3,3.5-6.5c0.8-1.7,2-2.7,3.5-3.8c2.7-1.9,5.3-4.1,7.7-6.4c1.8-1.6,3.8-2.5,6.2-3
			c3.8-0.8,7.2-2.4,10-5.2c0.6-0.6,1.2-1.6,1.1-2.3c-0.4-3-0.9-6-3.1-8.2c-2-2.1-2.1-3.1-0.6-5.6c0.6-1,1.2-2,2-3.4
			c4.8,2.7,9.7,5.1,14.1,8.2c6.7,4.8,12,11.1,16.4,18.1C323.4,167.7,324.4,172,324.9,176.4z"/>
		<path class="st1" d="M317,208.4c0.4,2.5-2.2,5,0.2,7.7c-1.4,1.6-2.7,3.5-4.3,5.1c-0.4,0.4-1.4,0.5-2.1,0.5c-9.7,0-19.3,0-29,0.1
			c-2.4,0-4.9,0.1-7.3,0.3c-2.2,0.2-3.9-0.4-5-2.9c1.5-1.1,3-2.4,4.6-3.4c4.8-3,8.6-7,11.6-11.9c0.7-1.2,2.2-2.1,3.5-2.7
			c2.1-0.9,4.3-1.4,6.5-1.9c3.9-0.9,6.9,1.4,7.3,5.5c0,0.1,0,0.3,0,0.4c0.3,3.8,2.6,6.4,6.4,6.6c1.2,0.1,2.5-0.9,3.6-1.6
			C314.2,209.4,315.1,207.9,317,208.4z"/>
		<path class="st1" d="M214.8,221.6c-2.8,1.7-5,3-8,3c-13.1,0-26.3,0.3-39.4,0.4c-2.5,0-5-0.1-7.5-0.2c-0.5,0-0.9-0.3-1.4-0.4
			c0.9-2.5,3.5-4.2,6.3-4c1.4,0.1,2,0,2-1.9c0-1.3,1.4-2.7,2.5-3.8c0.7-0.7,1.9-1,2.9-1.1c7.6-0.8,13.7-4.3,18.4-10.4
			c0.3-0.4,0.6-0.8,1-1.1c0.9-0.7,1.7-0.8,2.1,0.6c0.4,1.1,0.9,2.1,1.2,3.2c1.3,3.8,3.9,6.2,7.6,7.4c1.6,0.6,2.8,1.4,3.5,3.2
			c0.7,1.9,2.2,3.2,4.4,3.5C211.9,220.1,213.1,220.9,214.8,221.6z"/>
		<path class="st1" d="M129.4,185.7c0.3,0.6,0.5,1.2,0.9,1.7c4,5.5,7.9,10.9,11.9,16.4c1.1,1.5,2.1,3.2,3.2,4.7
			c1.4,1.9,2.8,3.8,4.2,5.6c1.1,1.5,2.2,2.9,3.3,4.4c0.5,0.7,1.2,1.5,0.1,2.5c-1.1,0.9-2.1,0.8-3,0c-0.9-0.9-1.6-2-2.3-3
			c-3.3-4.7-6.6-9.5-9.9-14.3c-2.2-3.1-4.3-6.3-6.4-9.5c-1.2-1.8-2.5-3.6-3.4-5.6c-0.5-1.1-0.5-2.7-0.3-4c0.1-0.8,0.7-1.8,1.3-2.1
			c0.6-0.3,1.8,0,2.4,0.5c5.3,4.9,10.8,9.6,13.9,16.4c0.8,1.7,2.2,3.1,3.3,4.7c0.8,1.1,1.7,2.2,2.5,3.4c2.1,3.1,4.1,6.2,6.3,9.6
			c-0.4,0.4-1.1,1-1.9,1.7c-8.5-11.3-16.8-22.5-25.2-33.6C129.9,185.4,129.7,185.6,129.4,185.7z"/>
		<path class="st1" d="M353.3,295.6c0,7.6,0,15.3,0,22.9c0,1.1-0.3,2.3-0.8,3.2c-0.4,0.7-1.4,1.1-2.2,1.7c-0.5-0.8-1.3-1.6-1.4-2.4
			c-0.3-3.4-0.5-6.8-0.5-10.2c0.2-9.9,0.4-19.9,0.7-29.8c0.1-2.9,0.1-5.8,0.2-8.7c0-0.8,0.1-1.7,0.5-2.2c0.4-0.6,1.3-1.1,2-1.1
			c0.5,0,1.1,0.9,1.4,1.5c0.2,0.5,0.2,1.1,0.2,1.7C353.2,280,353.2,287.8,353.3,295.6C353.3,295.6,353.3,295.6,353.3,295.6z"/>
		<path class="st1" d="M81.6,236.1c0.1,0.7,0.4,1.4,0.4,2.1c0.1,4.2,0.1,8.5,0.1,12.7c0.1,11.2,0.2,22.5,0.3,33.7
			c0.1,11.2,0,22.5,0.1,33.7c0,2.2,0.3,4.5,0.3,6.7c0,0.7-0.6,1.3-0.9,2c-0.5-0.7-1.2-1.3-1.3-2c-0.3-2.5-0.4-5.1-0.4-7.7
			c-0.2-11.9-0.4-23.7-0.4-35.6c0-11.7,0.2-23.4,0.3-35.1c0-2.8,0-5.5,0.1-8.3c0-0.8,0.3-1.6,0.5-2.4
			C81,236.1,81.3,236.1,81.6,236.1z"/>
		<path class="st1" d="M152.6,240.4c0.2,3.7-0.3,7.3-2.9,10c-1.2,1.3-2.9,2-4.4,3c-0.1,0-1-0.9-0.9-1.2c1.6-4.5-0.2-8.6-1.9-12.5
			c-0.9-2.3-1.2-4.6-0.1-5.8c1.3-1.4,4.5-1.9,6.5-1.1C152.2,234.3,152.6,237.3,152.6,240.4z"/>
		<path class="st1" d="M126.7,255.8c-0.3-0.1-0.6-0.1-0.6-0.2c-1.9-4.1-5.8-6.1-8.8-9c-2.7-2.6-3.9-5.6-2.4-9.1
			c0.5-1.3,2.1-2.4,3.4-2.9c1.4-0.4,3-0.7,4.3,1.2c1.9,2.7,3.1,5.5,3.6,8.7c0.2,1.5,0.7,3,1.1,4.5
			C127.8,251.2,128,253.5,126.7,255.8z"/>
		<path class="st1" d="M112.9,260.1c-4-4.8-7.8-9-11.3-13.4c-2.8-3.6-1.1-6.8,2.4-8.4c0.5-0.3,1.5,0,2.1,0.3
			c2.5,1.4,4.1,3.7,4.7,6.4c0.8,3.3,1.2,6.7,1.6,10.1C112.7,256.6,112.7,258.1,112.9,260.1z"/>
		<path class="st1" d="M137.8,255c-0.5-0.8-0.8-1-0.8-1.3c-0.7-5.1-4-8.8-6.8-12.8c-1.4-2.1-1.6-4.5-0.5-5.9
			c1.4-1.8,4.4-2.7,6.1-1.5c1.1,0.8,2.3,2.1,2.6,3.3c0.6,2.2,0.7,4.6,0.7,7c0,2.9-0.3,5.9-0.5,8.8
			C138.5,253.3,138.1,253.9,137.8,255z"/>
		<path class="st1" d="M147.7,220.9c-2,0.3-3.1,0-4.1-1.5c-4.3-6.2-8.6-12.3-13.1-18.3c-1.6-2.1-0.4-4.3-0.7-6.4
			C135.7,203.4,141.6,212,147.7,220.9z"/>
		<path class="st1" d="M160.7,215.6c-0.7-0.1-1.5,0-1.8-0.4c-1.8-2-3.5-4.1-5.2-6.3c-1.5-1.9-2.8-3.9-4.2-5.9
			c-1-1.4-2.1-2.8-3.1-4.3c-1.8-2.6-3.4-5.3-5.2-8.1c2,0.4,4,0.5,5.3,2.6c2.6,4.4,5.4,8.6,8.2,12.9
			C156.5,209.1,158.5,212.1,160.7,215.6z"/>
		<path class="st1" d="M142.9,221.1c-2.3,0.9-3.6,0.6-4.8-1.4c-2.8-4.4-5.9-8.6-8.6-13c-0.7-1.2-0.5-3-0.7-4.6
			c0.3-0.1,0.6-0.2,0.9-0.3C134,208.2,138.4,214.6,142.9,221.1z"/>
		<path class="st1" d="M165.7,212.3c-4-5.6-7.8-11-11.7-16.4c2.3,0.4,4.7,0.3,6.3,2.8c2.4,3.9,5.2,7.5,8,11.4
			C167.3,210.9,166.5,211.5,165.7,212.3z"/>
		<path class="st1" d="M163.1,214c-1.2-1.1-2.6-1.9-3.5-3.2c-3.7-5.7-7.3-11.5-11.2-17.6c1.9,0.8,3.3,1.2,4.2,3
			c1.1,2.3,2.8,4.2,4.2,6.3c2.2,3.3,4.3,6.6,6.4,9.9c0.1,0.2,0.2,0.5,0.2,0.7C163.5,213.4,163.3,213.6,163.1,214z"/>
		<path class="st1" d="M172.3,207.4c-1.4,1.9-3,1.3-3.7,0.4c-2.5-2.9-4.6-6-6.9-9.1c-0.2-0.3-0.3-0.7-0.6-1.4
			c2.1,0.6,4.1,0.5,5.5,2.5C168.4,202.4,170.4,204.9,172.3,207.4z"/>
		<path class="st1" d="M138.1,222.1c-1.8,0.8-2.7,0.5-3.6-0.9c-1.9-3-3.9-5.9-6-8.8c-1.7-2.3-1.8-2.2,0.1-5.1
			C131.7,212.3,134.8,217.1,138.1,222.1z"/>
		<path class="st1" d="M167,198c3.3-1,4-0.7,5.6,1.9c0.6,0.9,1.2,1.8,1.8,2.7c0.6,0.9,1.3,1.7,1.9,2.5c-1.6,2.1-2.2,2.1-3.7,0.2
			c-1.6-2.1-3.2-4.1-4.8-6.1C167.6,198.8,167.3,198.4,167,198z"/>
		<path class="st1" d="M80.1,341.2c0,1.7-1.1,2.8-2.6,2.8c-1.4,0-2.6-1.4-2.6-2.9c0-1.8,1-2.7,2.7-2.7
			C79.3,338.4,80.1,339.4,80.1,341.2z"/>
		<path class="st1" d="M126,211.2c2,2.8,3.8,5.3,5.6,7.8c-3-1-5.5-2.4-7.1-5.1C123.5,212.2,125.3,212.2,126,211.2z"/>
		<path class="st1" d="M172.8,197.4c2.1-1.1,3.2-0.7,4.1,1.1c0.5,1.1,1.4,2.1,2,3.2c0.3,0.5,0.2,1.2,0.2,1.8c-0.6-0.1-1.4,0-1.8-0.3
			C175.8,201.4,174.4,199.5,172.8,197.4z"/>
		<path class="st1" d="M178,197.4c1.8-0.2,3.3-0.3,4.7-0.4c0.1,0,0.3,0,0.4,0.1c0.2,0.4,0.6,0.9,0.5,1.1c-0.6,1.2-1.2,2.3-1.9,3.4
			c-0.1,0.1-0.9-0.1-1.1-0.4C179.7,200,178.9,198.8,178,197.4z"/>
		<path d="M210.2,110.2c-1.2-1.7-2.6-3.4-3.6-5.2c-2.6-4.8-6.7-7.9-11.1-10.7c-2.7-1.7-5.1-3.8-7.9-5.2c-2.4-1.2-5.2-1.8-7.9-2.5
			c-0.3-0.1-1.2,0.6-1.3,1c-1.5,6-4.6,10.7-9.3,14.8c-4.1,3.5-7,8.2-6.7,14.4c1.4-0.1,2.7-0.2,4.1-0.4c8.4-1,16.6,0.2,24.8,2
			c1.5,0.3,3,0.8,4.6,1.1c1.4,0.3,1.8,1.1,1.9,2.4c0.2,11.2,0.7,22.5-2.3,33.5c-1.6,6-3.9,11.8-7.8,16.7c-0.8,1-1.5,2.1-2.1,3.2
			c-2.3,3.7-6,5.6-9.7,7.4c-1.6,0.7-3.6,0.7-5.4,0.7c-4.7,0.2-9.4,0.1-14.1-0.4c-2.3-0.1-5.1-3.1-5-5.5c0.1-2.7,0.4-5.5,1.1-8.1
			c1.9-6.7,2.3-13.5,1.3-20.4c-0.6-4.6-3.3-7.8-7.3-9.9c-1.3-0.7-2.6-1.6-3.8-2.5c-3.4-2.6-1.6-8,1-9.8c4.2-2.8,8.5-5.4,12.8-7.9
			c1.8-1.1,2.1-1.7,1.2-3.6c-0.8-1.7-1.7-3.3-2.7-4.8c-0.6-0.9-1.6-1.6-2.6-2c-4.9-1.6-9.9-1.8-14.9-0.7c-2,0.4-4,0.9-5.9-1.2
			c-1.1,1.9-2.4,3.4-3,5.1c-2.1,5.8-1.9,11.1,2.3,16.2c2.9,3.5,5.7,7.4,7.7,11.5c1.4,2.8,1.5,6.3,2,9.5c0.1,0.5-0.6,1.1-0.9,1.7
			c-0.5-0.4-1.2-0.8-1.4-1.3c-0.6-1.3-1-2.7-1.3-4.2c-0.7-3.1-2.5-5.4-4.4-7.7c-2.8-3.4-5.7-6.9-7.6-10.9c-2.3-4.9-2.1-10.4,0-15.5
			c1.2-2.9,3-5.4,4.5-8.2c0.3-0.6,0.4-1.4,0.7-2.1c1.5-4,3.5-7.8,6.8-10.7c1.7-1.5,3.8-2.2,6.1-2.2c1.1,0,2.2-0.3,3.2-0.7
			c5.9-2.4,11.3-5.9,17.7-6.8c6.3-1,12.4-1.4,18.6,0.6c2.3,0.7,4.7,0.7,6.5-2c1.6-2.4,4.3-1.8,6.7-1.8c4.9,0,8.2,3.1,11,6.5
			c2.2,2.6,4.9,3.3,7.9,4.1c1.2,0.3,2.5,0.6,3.7,0.5c2.7,0,3.9,1.7,4.4,3.9c0.4,2.3,1,4.6-1.1,6.8c-1.6,1.6-3,2.5-5.2,2.9
			c-3,0.5-3.9,1.9-4.5,5.2c-0.2,1-0.7,2-1.1,3C210.7,110.1,210.5,110.2,210.2,110.2z M175.5,173.1c-0.2-0.2-0.5-0.3-0.7-0.5
			c6.6-7.7,10.4-16.5,10.7-27c-4.2,1-8.2,2.1-11.4,4.7c-2.2,1.8-3.9,2.5-6.7,1.2c-2.5-1.1-4.8,0.9-4.9,3.7
			c-0.1,3.7-0.1,7.5-0.2,11.2c-0.1,2.7,0.1,5.2,2.8,6.7c0.2,0.1,0.4,0.7,0.3,1c-0.2,1.3-2.1,2.3-3,1.5c-1-0.8-2.1-2-2.4-3.2
			c-0.4-2-0.3-4.1-0.2-6.1c0.3-6.4,0.9-12.8-0.4-19.2c-0.1-0.7-1-1.2-1.5-1.9c-0.2,0.7-0.7,1.4-0.7,2.1c-0.3,5.7-0.5,11.4-0.7,17.1
			c-0.2,3.8-0.6,7.5-0.5,11.3c0,3,1.5,4.2,4.4,4.5c2.1,0.2,4.3,0.4,6.4,0.2c3.2-0.4,6.7-0.1,9.3-2.6c2.4-2.3,4.9-4.7,6.8-7.4
			c4.3-6.5,8.2-13.2,9.4-21.2c0.2-1.4,0.5-2.8-0.7-3.9c-0.4-0.4-1.2-1-1.4-0.9c-0.5,0.3-0.9,1-1.1,1.6c-1.1,3.9-1.9,7.9-3,11.9
			c-1.6,5.7-4.9,10.5-9.1,14.6C176.4,172.8,175.9,172.9,175.5,173.1z M172.2,119.6c-0.7,0-0.3,0-0.8,0c-3.9,0.7-7.8,1.3-11.6,2.1
			c-1.7,0.4-3.3,1.1-4.9,1.8c-0.4,0.2-1.1,0.6-1,1c0.1,2,0.3,4.1,0.5,6.2c6.2-3.3,12.7-3.9,18.8-5.9
			C173,123.4,172.2,121.5,172.2,119.6z M176.3,131.3c1.9-4.3,3.7-8.4,5.5-12.6c-2.5-1.1-4.8,0.1-7.1,0.6
			C174.2,123.1,175,129.5,176.3,131.3z M185.3,120.1c-1.1-0.3-1.6,0.2-1.7,1.4c-0.2,2-0.6,3.9-0.7,5.9c0,0.7,0.7,1.5,1.1,2.3
			c0.6-0.5,1.5-0.8,1.7-1.4c0.6-1.9,0.9-3.9,1.4-5.9C187.6,120.6,186.8,120,185.3,120.1z M187.9,130.1c1.1-0.6,2-0.8,2.3-1.3
			c1.2-1.6,2.2-3.4,3.2-5.1c0.5-0.9,0.6-1.8-0.6-2.1c-1.2-0.3-2.8-1.3-3.3,0.6C188.7,124.6,188.5,127,187.9,130.1z M153,134.5
			c-0.6-3-1.2-5.8-1.7-8.7c-2.7,1.2-3.3,1.7-3.2,3.1C148.2,130.6,151.2,134.1,153,134.5z M151.1,136.3c-1.9-2.4-3.5-4.5-5.2-6.6
			c-2.2,3.4-2.7,3.4,2.7,7.1C149.8,137.6,150.7,137.6,151.1,136.3z M158.4,104.3c0.2-0.1,0.5-0.3,0.7-0.4c-0.3-0.7-0.6-1.5-0.9-2.2
			c-1.3-2.5-2.7-4.9-4-7.4c-0.5-1-1-1.9-1.6-2.8c-0.2-0.3-0.9-0.3-1.4-0.5c0,0.5-0.3,1.1-0.1,1.5
			C153.4,96.4,155.9,100.3,158.4,104.3z M157.8,98.6c0.2,0,0.5,0,0.7,0c0-0.8,0.4-1.8,0.1-2.4c-1.1-2.1-2.4-4.2-3.7-6.2
			c-0.7-1.1-1.3-0.9-1.9,0.1C154.7,93,156.2,95.8,157.8,98.6z M155.3,88.4c1.6,2.4,3,4.6,4.5,6.8c1.4-1.5,1.5-1.8-0.9-4.6
			C158,89.7,157.7,87.3,155.3,88.4z M153.7,99c-1.3-2.2-2.3-4.2-3.5-6c-0.2-0.3-1-0.5-1.4-0.4c-0.3,0.1-0.6,1-0.5,1.1
			C149.7,95.6,150.6,98.2,153.7,99z M157.7,87.4c1.4,1.7,2.8,3.3,4.1,4.9c0.2,0,0.4,0,0.5,0c0-0.6,0.3-1.3,0-1.8
			c-0.5-1-1.3-1.9-1.9-2.9C159.9,86.4,159,86.4,157.7,87.4z M149.8,97.3c-0.8-1.1-1.4-2.1-2.2-2.8c-0.3-0.3-1-0.1-1.5-0.2
			c0,0.5-0.2,1-0.1,1.3C146.7,97.1,147.6,98,149.8,97.3z M160.8,86.3c1.2,1.5,2.3,3,3.4,4.4C164.7,88,162.5,85.4,160.8,86.3z
			 M144.7,95.3c-0.9,0.6-1.5,1.1-2.1,1.5c0,0.2,0.1,0.3,0.1,0.5c1,0,2.1,0,3.5,0C145.7,96.5,145.3,96,144.7,95.3z M164.5,85.4
			c-0.2,0.1-0.4,0.2-0.6,0.4c0.6,1.1,1.3,2.2,1.9,3.3c0.2-0.1,0.4-0.2,0.5-0.3C166.1,87.4,165.6,86.2,164.5,85.4z"/>
		<path d="M269.9,330.2c-3.8,0-7.5,0-11.2,0c-5.3,0.1-10.5,0.3-15.8,0.3c-12.5,0.1-25,0.1-37.5,0.1c-12.9-0.1-25.9-0.3-38.8-0.5
			c-8-0.1-16.2-0.5-23.9-0.5c-6.2,0-12.4-0.1-18.7,0c-1.5,0-2.1-0.3-2.1-2c0.1-4.2-0.7-4,3.9-4c7.9,0,15.8,0,23.7,0.2
			c8.3,0.2,16.6,0.8,24.8,0.9c9,0.1,18-0.1,27-0.2c18.2-0.2,36.5-0.3,54.7-0.5c2.5,0,5-0.3,7.5-0.4
			C267.4,323.8,270.1,326.3,269.9,330.2z"/>
		<path class="st1" d="M175.5,173.1c0.4-0.2,1-0.3,1.3-0.6c4.2-4.1,7.4-8.9,9.1-14.6c1.1-3.9,2-7.9,3-11.9c0.2-0.6,0.6-1.3,1.1-1.6
			c0.2-0.1,1,0.5,1.4,0.9c1.2,1.1,1,2.5,0.7,3.9c-1.2,8-5.1,14.7-9.4,21.2c-1.8,2.8-4.3,5.1-6.8,7.4c-2.6,2.4-6.1,2.1-9.3,2.6
			c-2.1,0.3-4.3,0-6.4-0.2c-2.9-0.2-4.3-1.5-4.4-4.5c0-3.8,0.4-7.5,0.5-11.3c0.3-5.7,0.4-11.4,0.7-17.1c0-0.7,0.5-1.4,0.7-2.1
			c0.5,0.6,1.3,1.2,1.5,1.9c1.2,6.4,0.7,12.8,0.4,19.2c-0.1,2-0.2,4.1,0.2,6.1c0.3,1.2,1.4,2.3,2.4,3.2c1,0.8,2.8-0.2,3-1.5
			c0.1-0.3-0.1-0.9-0.3-1c-2.6-1.5-2.8-4.1-2.8-6.7c0.1-3.7,0.1-7.5,0.2-11.2c0.1-2.8,2.4-4.8,4.9-3.7c2.8,1.3,4.5,0.5,6.7-1.2
			c3.2-2.6,7.2-3.7,11.4-4.7c-0.3,10.5-4.1,19.3-10.7,27C175,172.8,175.3,172.9,175.5,173.1z"/>
		<path class="st1" d="M172.2,119.6c0.5,2,0.7,3.7,1,5.2c-6.2,2-12.7,2.6-18.8,5.9c-0.2-2.1-0.4-4.1-0.5-6.2c0-0.3,0.6-0.8,1-1
			c1.6-0.7,3.2-1.4,4.9-1.8c3.9-0.8,7.8-1.5,11.6-2.1C172,119.5,171.5,119.6,172.2,119.6z"/>
		<path class="st1" d="M176.3,131.3c-1.3-1.8-2.1-8.3-1.6-12c2.3-0.5,4.6-1.7,7.1-0.6C179.9,122.9,178.2,127,176.3,131.3z"/>
		<path class="st1" d="M185.3,120.1c1.5-0.1,2.2,0.5,1.8,2.2c-0.5,2-0.8,4-1.4,5.9c-0.2,0.6-1.1,0.9-1.7,1.4
			c-0.4-0.8-1.2-1.5-1.1-2.3c0.1-2,0.5-3.9,0.7-5.9C183.8,120.3,184.2,119.8,185.3,120.1z"/>
		<path class="st1" d="M187.9,130.1c0.6-3.1,0.8-5.6,1.5-7.9c0.6-1.9,2.1-0.9,3.3-0.6c1.2,0.3,1.2,1.2,0.6,2.1c-1,1.7-2,3.5-3.2,5.1
			C189.9,129.3,189,129.5,187.9,130.1z"/>
		<path class="st1" d="M153,134.5c-1.8-0.4-4.8-3.9-4.9-5.6c-0.1-1.4,0.5-2,3.2-3.1C151.8,128.7,152.4,131.5,153,134.5z"/>
		<path class="st1" d="M151.1,136.3c-0.4,1.3-1.3,1.2-2.5,0.5c-5.4-3.6-4.9-3.7-2.7-7.1C147.6,131.9,149.2,134,151.1,136.3z"/>
		<path class="st1" d="M158.4,104.3c-2.5-3.9-4.9-7.8-7.3-11.8c-0.2-0.3,0.1-1,0.1-1.5c0.5,0.1,1.1,0.1,1.4,0.5
			c0.6,0.9,1.1,1.9,1.6,2.8c1.3,2.5,2.7,4.9,4,7.4c0.4,0.7,0.6,1.5,0.9,2.2C158.8,104,158.6,104.1,158.4,104.3z"/>
		<path class="st1" d="M157.8,98.6c-1.6-2.8-3.1-5.7-4.7-8.6c0.6-1,1.2-1.1,1.9-0.1c1.3,2.1,2.6,4.1,3.7,6.2c0.3,0.6,0,1.6-0.1,2.4
			C158.3,98.6,158,98.6,157.8,98.6z"/>
		<path class="st1" d="M155.3,88.4c2.4-1.2,2.7,1.2,3.6,2.2c2.4,2.8,2.3,3.1,0.9,4.6C158.3,93,156.9,90.9,155.3,88.4z"/>
		<path class="st1" d="M153.7,99c-3.1-0.8-3.9-3.4-5.4-5.3c-0.1-0.2,0.3-1.1,0.5-1.1c0.4-0.1,1.2,0.1,1.4,0.4
			C151.3,94.8,152.4,96.8,153.7,99z"/>
		<path class="st1" d="M157.7,87.4c1.3-1,2.1-1.1,2.9,0.3c0.5,1,1.4,1.8,1.9,2.9c0.2,0.5,0,1.2,0,1.8c-0.2,0-0.4,0-0.5,0
			C160.5,90.8,159.2,89.1,157.7,87.4z"/>
		<path class="st1" d="M149.8,97.3c-2.1,0.7-3.1-0.2-3.7-1.7c-0.2-0.4,0.1-0.9,0.1-1.3c0.5,0.1,1.2-0.1,1.5,0.2
			C148.3,95.3,148.9,96.2,149.8,97.3z"/>
		<path class="st1" d="M160.8,86.3c1.7-0.9,3.9,1.6,3.4,4.4C163.1,89.3,162,87.8,160.8,86.3z"/>
		<path class="st1" d="M144.7,95.3c0.5,0.7,0.9,1.2,1.5,2c-1.4,0-2.4,0-3.5,0c0-0.2-0.1-0.3-0.1-0.5
			C143.3,96.4,143.9,95.9,144.7,95.3z"/>
		<path class="st1" d="M164.5,85.4c1.1,0.8,1.6,2,1.8,3.4c-0.2,0.1-0.4,0.2-0.5,0.3c-0.6-1.1-1.3-2.2-1.9-3.3
			C164.1,85.6,164.3,85.5,164.5,85.4z"/>
		<g>
			<circle cx="302.4" cy="279.1" r="36.8"/>
			<circle class="st2" cx="302.4" cy="279.1" r="37.2"/>
			
				<ellipse transform="matrix(0.9994 -3.327790e-02 3.327790e-02 0.9994 -9.12 10.217)" cx="302.4" cy="279.1" rx="33.7" ry="33.7"/>
			<g>
				<path d="M288,279.1c0,0.5,0,2,0.5,3.9c1.6,5.2,6.9,10.5,13.8,10.4c7.4,0,14.3-6.2,14.3-14.3c0-7.9-6.4-14.3-14.3-14.3
					S288,271.2,288,279.1z"/>
				<circle class="st1" cx="302.4" cy="279.1" r="11.2"/>
				<circle cx="302.4" cy="279.1" r="6.9"/>
			</g>
			<path class="st1" d="M273.7,290.3"/>
			<path id="XMLID_5_" class="st3" d="M310.9,290.6c0.7-0.4,1.2-0.9,1.8-1.5c2.3,2.8,6.5,6.1,11.7,9.1c1.4,0.8,2.8,1.5,4.2,2.2
				c-1.9,2.4-4.2,4.5-6.8,6.3c-0.6,0.4-1.3,0.9-2,1.2c-1.3-1.1-2.6-2.3-4-3.7c-4.1-4.3-6.9-8.8-7.9-12.2
				C308.9,291.7,309.9,291.3,310.9,290.6z"/>
			<path id="XMLID_4_" class="st3" d="M296.6,292.2c0.7,0.3,1.4,0.6,2.1,0.8c-1.3,3.4-2.1,8.7-2.1,14.6c0,1.6,0.1,3.2,0.2,4.7
				c-3-0.4-5.9-1.3-8.7-2.7c-0.7-0.3-1.4-0.7-2-1.1c0.3-1.7,0.7-3.4,1.2-5.3c1.7-5.7,4.2-10.4,6.6-12.9
				C294.7,291.1,295.6,291.7,296.6,292.2z"/>
			<path id="XMLID_3_" class="st3" d="M288.1,280.6c0.1,0.8,0.2,1.5,0.4,2.3c-3.6,0.6-8.6,2.6-13.7,5.5c-1.4,0.8-2.7,1.7-4,2.5
				c-1.1-2.8-1.8-5.8-2-8.9c-0.1-0.8-0.1-1.5-0.1-2.3c1.6-0.6,3.3-1.1,5.2-1.6c5.7-1.4,11.1-1.6,14.5-0.8
				C288.2,278.4,288.1,279.5,288.1,280.6z"/>
			<path id="XMLID_1_" class="st3" d="M308.2,266c-0.7-0.3-1.4-0.6-2.1-0.8c1.3-3.4,2.1-8.7,2.1-14.6c0-1.6-0.1-3.2-0.2-4.7
				c3,0.4,5.9,1.3,8.7,2.7c0.7,0.3,1.4,0.7,2,1.1c-0.3,1.7-0.7,3.4-1.2,5.3c-1.7,5.7-4.2,10.4-6.6,12.9
				C310.1,267.1,309.2,266.5,308.2,266z"/>
			<path class="st3" d="M316.6,277.6c-0.1-0.8-0.2-1.5-0.4-2.3c3.6-0.6,8.6-2.6,13.7-5.5c1.4-0.8,2.7-1.7,4-2.5
				c1.1,2.8,1.8,5.8,2,8.9c0.1,0.8,0.1,1.5,0.1,2.3c-1.6,0.6-3.3,1.1-5.2,1.6c-5.7,1.4-11.1,1.6-14.5,0.8
				C316.6,279.8,316.7,278.7,316.6,277.6z"/>
			<path id="XMLID_2_" class="st3" d="M294,267.5c-0.6,0.4-1.2,0.9-1.8,1.5c-2.3-2.8-6.5-6.2-11.6-9.1c-1.4-0.8-2.8-1.5-4.2-2.2
				c1.8-2.3,4.1-4.5,6.7-6.2c0.6-0.4,1.3-0.8,2-1.2c1.3,1.1,2.6,2.3,3.9,3.7c4.1,4.3,6.9,8.8,7.9,12.2
				C295.9,266.4,294.9,266.9,294,267.5z"/>
		</g>
		<g>
			<rect x="253.6" y="348.4" class="st1" width="2.9" height="10.2"/>
			<rect x="246.9" y="348.4" class="st1" width="2.9" height="10.2"/>
			<rect x="231" y="348.4" class="st1" width="2.9" height="10.2"/>
			<rect x="224.3" y="348.4" class="st1" width="2.9" height="10.2"/>
			<rect x="217.1" y="348.4" class="st1" width="2.9" height="10.2"/>
			<rect x="210.5" y="348.4" class="st1" width="2.9" height="10.2"/>
			<rect x="203.8" y="348.4" class="st1" width="2.9" height="10.2"/>
			<rect x="196.8" y="348.4" class="st1" width="2.9" height="10.2"/>
			<rect x="190.1" y="348.4" class="st1" width="2.9" height="10.2"/>
			<rect x="183.3" y="348.4" class="st1" width="2.9" height="10.2"/>
			<rect x="176.7" y="348.4" class="st1" width="2.9" height="10.2"/>
			<rect x="170" y="348.4" class="st1" width="2.9" height="10.2"/>
			<rect x="162.9" y="348.4" class="st1" width="2.9" height="10.2"/>
			<rect x="156.3" y="348.4" class="st1" width="2.9" height="10.2"/>
			<rect x="132.8" y="348.4" class="st1" width="2.9" height="10.2"/>
			<rect x="126.2" y="348.4" class="st1" width="2.9" height="10.2"/>
			<rect x="119.5" y="348.4" class="st1" width="2.9" height="10.2"/>
			<rect x="112.5" y="348.4" class="st1" width="2.9" height="10.2"/>
			<rect x="105.8" y="348.4" class="st1" width="2.9" height="10.2"/>
		</g>
		<path class="st4" d="M107.8,154.6"/>
		<path d="M54.6,155.7"/>
		<path d="M76.9,135.1"/>
		<g>
			<path class="st1" d="M104.8,161.3c1.9-1.2,2.3-2.3,1.8-4.2c-0.2-0.6-0.8-0.8-1.3-0.6c-6.8,3-13.7,6.1-20.7,9.3
				c-0.6,0.3-1.3-0.1-1.4-0.7c-1.2-7.9-1.6-15.2-0.9-23c0-0.6,1.4-1.8,2-2c4.2-1.5,8-1.8,11.5-2.4c2.2-0.4,4.9-1,7.1-1.2
				c1.9-0.2,1.9-0.9,1.8-2.1c0-1.2-0.5-1.5-1.7-1.3c-3.8,0.4-7.6,0.5-11.4,1c-3.8,0.5-7.5,1.2-11.3,2c-0.6,0.1-1.3,1-1.5,1.7
				c-0.3,1.2-0.4,2.5-0.4,3.8c0,7.5,0.1,15,0.2,22.5c0,3.3,0.2,6.5,0.4,9.8c0.1,1.6,0.9,1.8,2.3,1c2.8-1.6,5.8-3,8.6-4.6
				C94.9,167.4,99.9,164.4,104.8,161.3z"/>
			<path d="M109.3,153.9c-0.2-1.3-0.9-1.9-2.3-1.4c-2.2,0.8-4.4,1.5-6.5,2.3c-1.8,0.7-3.6,1.5-5.4,2.2c-2.4,0.9-4.7,1.8-7.4,2.8
				c-0.6,0.2-1.3-0.2-1.3-0.9c-0.3-4.6-0.5-8.9-0.9-13.1c-0.1-1.8,0.6-3.1,2.3-3.4c5.7-1.1,11.5-1.9,17.2-3.2
				c1.7-0.4,2.6-0.9,2.5-2.7c-0.2-1.9-0.3-3.7-0.5-5.6c-0.1-0.7-0.6-1.2-1.3-1.2c-0.8,0-2,0-2.7,0c-3,0.1-4.9,0-10.1,0.6
				c0,0,0,0-0.1,0c-4.3,0.2-10.3,0.5-15.3,1.9c-1.3,0.4-3,0.9-3.1,2.1c-0.5,5.2-0.3,10.4-0.2,15.7c0.2,10.2-1,20.1,1.3,30.5
				c0.5,2.2,2.8,2.2,4.6,1c5.5-3.7,11-7.3,16.6-10.9c3.9-2.5,7.9-4.9,11.8-7.5c0.8-0.5,1.7-1.7,1.7-2.5
				C110.2,158.2,109.7,156.1,109.3,153.9z M79,173.9c-0.2-3.3-0.4-6.5-0.4-9.8c-0.1-7.5-0.1-15-0.2-22.5c0-1.3,0.1-2.6,0.4-3.8
				c0.2-0.7,0.9-1.5,1.5-1.7c3.7-0.8,7.5-1.5,11.3-2c3.8-0.5,7.6-0.6,11.4-1c1.2-0.1,1.6,0.2,1.7,1.3c0,1.2,0.1,1.9-1.8,2.1
				c-2.2,0.2-4.9,0.8-7.1,1.2c-3.5,0.6-7.3,0.9-11.5,2.4c-0.6,0.2-1.9,1.5-2,2c-0.7,7.8-0.3,15,0.9,23c0.1,0.6,0.8,1,1.4,0.7
				c7.1-3.2,13.9-6.2,20.7-9.3c0.5-0.2,1.2,0,1.3,0.6c0.6,2,0.1,3-1.8,4.2c-4.9,3.1-9.9,6.1-14.9,9c-2.8,1.6-5.8,3-8.6,4.6
				C79.9,175.7,79.1,175.5,79,173.9z"/>
		</g>
		<g>
			<path class="st1" d="M105.8,99.2l-1.8-1c-0.7-0.4-1.8-0.8-2.4-1.2c-4.6-2.5-10.2-5.7-15.3-7.3c-0.8-0.3-1.1-0.2-1.4,0.6
				c-0.1,0.2-0.5,0.9-0.6,1.1c-2.4,5.2-2.6,11.2-3.4,16.7c-0.4,5.4-0.6,10,0.1,15.1c0.1,0.5,0.9,1.2,1.4,1.2c3.2,0,6.5-0.1,9.7-0.3
				c2.7-0.1,5.5-0.3,8.3-0.4c0.4,0,0.7-0.4,0.7-0.8c-0.1-1-0.1-1.8-0.2-2.7c0-0.6-0.5-1-1-1.1c-0.3,0-0.5,0-0.8,0
				c-3.5,0-7-0.1-10.5,0c-1.5,0-2.1-0.4-2.1-1.9c0-5.4,0.5-10.9,1.4-16.2c0.3-1.9,1-3.8,1.6-5.7c0.1-0.4,1-0.8,1.4-0.6
				c1.6,0.6,3.1,1.4,4.6,2.1c2.9,1.4,6,3.3,8.9,4.7C105.8,102.2,107,99.9,105.8,99.2z"/>
			<path d="M107.2,97c-0.6-0.4-1.3-0.7-2-1.1c-6.4-3.6-12.7-7.2-19.2-10.6c-2.1-1.1-3.1-0.8-4.2,1c-0.4,0.6-0.7,1.2-0.9,1.8
				c-5.3,12.9-5.9,26.3-5.2,39.8c0,0.4,1.1,1.2,2.6,1.3c2.1,0.1,3.5,0.2,5.6,0.1c5.4-0.5,10.8-1.2,16.3-1.6c4.7-0.4,4.8-0.3,5.1-5
				c0.1-1.8,0.4-3.7,0-5.3c-0.2-0.7-0.8-1.1-1.5-1.1c-1.7,0.1-3.4,0-4.8,0c-2.4,0-4.5,0.3-6.8,0.1c-0.5,0-1.4-0.8-1.4-1.3
				c-0.3-4.9-0.1-9.6,1.7-14.5c0.1-0.4,0.6-0.6,1-0.4c0.7,0.3,1.3,0.5,1.8,0.8c3.1,1.6,6.2,3.1,9.3,4.7c1.1,0.6,2.2,0.8,2.8-0.4
				c0.8-1.4,1.3-2.9,1.7-4.5C109.4,99,108.9,98,107.2,97z M104.6,101.6c-2.9-1.4-6-3.3-8.9-4.7c-1.5-0.7-3-1.5-4.6-2.1
				c-0.4-0.1-1.3,0.3-1.4,0.6c-0.7,1.8-1.3,3.7-1.6,5.7c-0.9,5.3-1.4,10.8-1.4,16.2c0,1.4,0.6,1.9,2.1,1.9c3.5-0.1,7,0,10.5,0
				c0.2,0,0.5,0,0.8,0c0.6,0,1,0.5,1,1.1c0.1,0.9,0.1,1.8,0.2,2.7c0,0.4-0.3,0.8-0.7,0.8c-2.8,0.2-5.6,0.3-8.3,0.4
				c-3.2,0.1-6.5,0.3-9.7,0.3c-0.5,0-1.4-0.7-1.4-1.2c-0.7-5.1-0.6-9.8-0.1-15.1c0.8-5.6,1-11.6,3.4-16.7c0.1-0.2,0.5-0.8,0.6-1.1
				c0.3-0.8,0.6-0.9,1.4-0.6c5.1,1.6,10.7,4.8,15.3,7.3c0.7,0.4,1.8,0.8,2.4,1.2l1.8,1C107,99.9,105.8,102.2,104.6,101.6z"/>
		</g>
		<path class="st0" d="M92.7,51.5"/>
		<path id="_x3C_路徑_x3E_v_1_" class="st5" d="M367.6,162.2c15.5,61.4-35.5,109.4-38.7,110.9c-3,1.4-6.2,1.8-6.2,1.8
			c-1.1,0.2-2.2,0.2-5.1,0.3c-6.4-1.1-0.1-7.8,0.6-14.6c0.7-4.6,0.3-9.3-1.7-11c-0.8-0.7-2.1-1.2-7.4-0.2c-3.2,0.6-10.1,1.6-15.4,4
			c3.1-3.4,11.2-8.4,18.4-12.6c5.1-3,14-7.3,16.6-5.5c4.9,3.3,0.3,22.1,0,22.8c28.9-26,31.5-71.4,29.9-90.4
			c-3.2-38.3-43.6-78.8-46-82.5l0,0C323.2,92.1,356.3,117.4,367.6,162.2z"/>
	</g>
	<path id="XMLID_6_" class="st3" d="M294,267.5c-0.6,0.4-1.2,0.9-1.8,1.5c-2.3-2.8-6.5-6.2-11.6-9.1c-1.4-0.8-2.8-1.5-4.2-2.2
		c1.8-2.3,4.1-4.5,6.7-6.2c0.6-0.4,1.3-0.8,2-1.2c1.3,1.1,2.6,2.3,3.9,3.7c4.1,4.3,6.9,8.8,7.9,12.2
		C295.9,266.4,294.9,266.9,294,267.5z"/>
</g>
</svg>
